<svg width="570" height="365" fill="none" xmlns="http://www.w3.org/2000/svg"><g clip-path="url(#Frame 43__a)"><path d="M565 0a5 5 0 0 1 5 5v355a5 5 0 0 1-5 5H5a5 5 0 0 1-5-5V5a5 5 0 0 1 5-5h560Z" fill="#FEFEFE"/><path d="M565 0a5 5 0 0 1 5 5v355a5 5 0 0 1-5 5H162.887c-4.273 0-6.463-4.916-3.362-7.855 3.773-3.575 8.082-7.201 12.96-10.873 27.156-20.509 60.242-28.906 87.76-48.12 22.215-15.512 37.442-40.686 40.866-67.573 3.021-23.601-2.63-47.341-4.217-71.081-1.573-23.74 2.032-49.959 19.375-66.222 32.181-30.187 88.233-8.354 126.26-30.716 15.812-9.301 26.919-26.177 29.244-44.362.539-4.241.629-8.503.461-12.781C472.12 2.497 474.403 0 477.326 0H565Z" fill="#D55593"/><path d="M105.395 38.513c0 33.39-27.058 60.458-60.436 60.458-17.17 0-32.667-7.157-43.659-18.66C.449 79.42 0 78.225 0 76.993V5a5 5 0 0 1 5-5h84.194c1.49 0 2.911.657 3.816 1.84 7.775 10.17 12.385 22.884 12.385 36.673Z" fill="#ED6CA6"/><path d="M82.874 3.982c0 6.475-5.247 11.71-11.72 11.71-6.458 0-11.706-5.235-11.706-11.71 0-.196.005-.39.014-.584.1-2.09 2.07-3.398 4.161-3.398H78.7c2.091 0 4.06 1.309 4.161 3.398.01.194.014.389.014.584ZM60.895 71.215c0 6.469-5.244 11.714-11.71 11.714-6.469 0-11.712-5.245-11.712-11.714 0-6.47 5.243-11.716 11.711-11.716 6.467 0 11.71 5.245 11.71 11.716Zm-48.41-20.727c0 4.233-3.438 7.672-7.683 7.672-.96 0-1.876-.177-2.72-.497C.66 57.123 0 55.589 0 54.069v-7.182c0-1.51.65-3.034 2.058-3.577a7.682 7.682 0 0 1 10.428 7.177ZM41.02 0c1.82 0 2.596 1.953.8 2.247a4.97 4.97 0 0 1-1.602 0C38.42 1.957 39.199 0 41.019 0ZM22.446 15.695a4.953 4.953 0 1 1-4.953-4.954 4.953 4.953 0 0 1 4.953 4.954Zm66.498 37.108a4.953 4.953 0 1 1-4.952-4.954 4.953 4.953 0 0 1 4.952 4.954Z" fill="#D55593"/><path d="M562.737 84.25c3.35-1.605 7.263.82 7.263 4.536V360a5 5 0 0 1-5 5H338.529c-5.048 0-7.098-6.921-3.044-9.93 23.635-17.538 43.42-40.29 57.339-66.247 25.235-47.063 32.042-104.68 68.203-143.987 26.939-29.23 65.64-43.31 101.71-60.586Z" fill="#ED6CA6"/><path d="M565.589 274.966c2.524.162 4.411 2.308 4.411 4.836V360a5 5 0 0 1-5 5H435.825c-3.223 0-5.607-3.013-4.646-6.09 14.581-46.673 66.486-76.019 112.375-82.842 7.151-1.066 14.678-1.573 22.035-1.102Z" fill="#D55593"/><path d="M512.403 342.762c-.425 0-.846.012-1.265.035-3.308.185-6.701-1.954-7.438-5.185-4.636-20.316-22.795-35.481-44.515-35.481-5.117 0-10.039.844-14.634 2.399-3.395 1.149-7.288-.955-7.61-4.526l-2.548-28.271a5 5 0 0 0-4.98-4.551h-22.102a5 5 0 0 0-4.979 4.552l-2.259 25.073c-.296 3.289-3.688 5.377-6.984 5.166-.473-.03-.951-.045-1.433-.045-12.274 0-22.231 9.954-22.231 22.239 0 2.425-1.611 4.699-3.977 5.236-9.851 2.236-18.492 7.658-24.785 15.131-2.113 2.51-6.047 2.867-8.885 1.219a22.09 22.09 0 0 0-11.137-2.991c-10.577 0-19.43 7.382-21.683 17.278-.613 2.692 1.683 4.96 4.445 4.96H529.64c2.761 0 5.058-2.268 4.445-4.96-2.254-9.896-11.107-17.278-21.682-17.278Z" fill="#FEFEFE"/><path d="M512.401 346.679c-2.184 0-4.319.381-6.344 1.131-2.435.9-5.057-.777-5.264-3.364-.834-10.434-5.532-20.112-13.227-27.258a41.584 41.584 0 0 0-28.381-11.139 41.811 41.811 0 0 0-19.713 4.942c-2.474 1.328-5.502-.302-5.754-3.1l-3.257-36.158a5 5 0 0 0-4.98-4.551h-14.236a5 5 0 0 0-4.98 4.551l-2.88 31.967c-.232 2.577-2.855 4.224-5.277 3.314a18.305 18.305 0 0 0-6.452-1.167c-10.099 0-18.314 8.218-18.314 18.32 0 1.225.125 2.469.37 3.694a3.922 3.922 0 0 1-3.358 4.655c-12.486 1.563-23.489 8.613-30.187 19.341-1.361 2.181-4.418 2.481-6.177.607-3.504-3.73-8.245-5.785-13.349-5.785-6.743 0-12.775 5.984-16.015 12.492-1.423 2.857.918 5.829 4.11 5.829h215.353c3.192 0 5.538-2.972 4.135-5.839-3.182-6.504-9.083-12.482-15.823-12.482Z" fill="#F3EDD8"/><path d="M501.735 365c3.93 0 6.127-4.259 3.084-6.746a27.502 27.502 0 0 0-17.469-6.226.644.644 0 0 1-.635-.78 27.74 27.74 0 0 0 .635-5.914c0-15.27-12.373-27.646-27.642-27.646-15.09 0-27.344 12.096-27.625 27.124l-4.566-72.942a5 5 0 0 0-4.99-4.688h-7.817a5 5 0 0 0-4.986 4.618l-3.806 49.656c-.047.62-.583 1.078-1.204 1.078-9.82 0-17.785 7.968-17.785 17.798 0 2.528-3.694 5.974-6.175 5.494a27.087 27.087 0 0 0-5.153-.492c-3.336 0-6.529.605-9.48 1.709-2.29.857-4.936.208-7.201-.713a8.349 8.349 0 0 0-11.482 7.742c0 2.243.885 4.278 2.324 5.777.675.703.976 1.73.617 2.637-.488 1.234.467 2.514 1.794 2.514h149.562Z" fill="#FEFEFE"/><path d="M472.38 354.288c0 3.598-1.334 6.884-3.537 9.389-.799.908-1.994 1.323-3.204 1.323h-14.998c-1.21 0-2.405-.415-3.204-1.323a14.168 14.168 0 0 1-3.537-9.389c0-7.869 6.379-14.244 14.241-14.244 7.86 0 14.239 6.375 14.239 14.244Zm-59.07-3.67a6.146 6.146 0 1 1-12.293 0 6.147 6.147 0 1 1 12.293 0Zm-6.147-16.06a3.073 3.073 0 1 1-6.146 0 3.073 3.073 0 1 1 6.146 0Zm55.006-4.9a3.073 3.073 0 1 1-6.147 0 3.074 3.074 0 0 1 6.147 0Zm-86.346 28.347a3.073 3.073 0 1 1-6.146 0 3.074 3.074 0 1 1 6.146 0Z" fill="#F3EDD8"/><path d="M393.565 318.487a5.307 5.307 0 0 1-5.305 5.308 5.308 5.308 0 0 1 0-10.614 5.307 5.307 0 0 1 5.305 5.306Zm-67.075 43.601-.001.112c-.033 1.809-1.877 2.8-3.686 2.8h-4.57c-1.807 0-3.649-.988-3.683-2.795l-.001-.117a5.973 5.973 0 0 1 5.967-5.977 5.974 5.974 0 0 1 5.974 5.977Zm49.111-187.305v84.449a5 5 0 0 1-5 5h-18.163a5 5 0 0 1-5-5v-84.449c0-7.776 6.303-14.086 14.081-14.086 3.89 0 7.405 1.579 9.955 4.128a14.041 14.041 0 0 1 4.127 9.958Zm111.749 0v84.449a5 5 0 0 1-5 5h-18.163a5 5 0 0 1-5-5v-84.449c0-7.776 6.308-14.086 14.082-14.086 3.889 0 7.409 1.579 9.959 4.128a14.058 14.058 0 0 1 4.122 9.958Z" fill="#FEFEFE"/><path d="M384.12 198.275c3.333-1.965 7.539.438 7.539 4.307v47.542a5 5 0 0 1-5 5h-57.335a5 5 0 0 1-5-5v-13.735a5 5 0 0 1 2.461-4.307l57.335-33.807Z" fill="#34BDB8"/><path d="M386.109 222.045c2.943-.475 5.55 1.851 5.55 4.832v23.247a5 5 0 0 1-5 5h-52.041c-4.173 0-6.222-4.554-3.117-7.343 9.286-8.342 27.551-21.364 54.608-25.736Z" fill="#28A6A1"/><path d="M452.609 198.275c-3.333-1.965-7.54.438-7.54 4.307v47.542a5 5 0 0 0 5 5h57.335a5 5 0 0 0 5-5v-13.735a5 5 0 0 0-2.46-4.307l-57.335-33.807Z" fill="#34BDB8"/><path d="M450.62 222.045c-2.944-.475-5.551 1.851-5.551 4.832v23.247a5 5 0 0 0 5 5h52.041c4.174 0 6.222-4.554 3.117-7.343-9.285-8.342-27.55-21.364-54.607-25.736Z" fill="#28A6A1"/><path d="M446.528 152.294v97.83a5 5 0 0 1-5 5H393.26a5 5 0 0 1-5-5V150.49c0-23.305 8.75-45.76 24.521-62.917l1.22-1.322a4.58 4.58 0 0 1 3.393-1.495c1.243 0 2.482.5 3.395 1.495a97.594 97.594 0 0 1 25.739 66.043Z" fill="#F3EDD8"/><path d="M414.001 86.251c1.423-1.555 3.393.214 3.393 2.322v161.551a5 5 0 0 1-5 5H393.26a5 5 0 0 1-5-5V150.49c0-23.305 8.75-45.76 24.521-62.917l1.22-1.322Z" fill="#FEFEFE"/><path d="M446.528 251.763a3.361 3.361 0 0 1-3.361 3.361h-51.546a3.362 3.362 0 0 1 0-6.723h51.546a3.362 3.362 0 0 1 3.361 3.362Z" fill="#ED6DA8"/><path d="M438.223 270.69a5 5 0 0 1-4.411 2.646h-32.836a5 5 0 0 1-4.411-2.646l-4.382-8.212c-1.777-3.331.637-7.354 4.412-7.354h41.598c3.775 0 6.189 4.023 4.412 7.354l-4.382 8.212Z" fill="#2E2E30"/><path d="M421.602 219.948v64.121a4.208 4.208 0 0 1-8.416 0v-64.121a4.208 4.208 0 0 1 8.416 0Z" fill="#28A6A1"/><path d="M421.602 219.948v66.223a2.106 2.106 0 1 1-4.211 0v-67.122c0-1.826 1.686-3.365 2.977-2.074a4.192 4.192 0 0 1 1.234 2.973Z" fill="#34BDB8"/><path d="M368.012 264.232c3.437 0 5.633 3.662 4.015 6.694a4.552 4.552 0 0 1-4.015 2.408h-12.986a4.55 4.55 0 0 1-4.015-2.409c-1.618-3.031.578-6.693 4.015-6.693h12.986Zm111.75 0c3.436 0 5.633 3.662 4.015 6.693a4.55 4.55 0 0 1-4.015 2.409h-12.986a4.552 4.552 0 0 1-4.015-2.408c-1.618-3.032.578-6.694 4.015-6.694h12.986Z" fill="#2E2E30"/><path d="M371.838 180.214a3.762 3.762 0 1 1 0 7.524H351.2a3.762 3.762 0 0 1 0-7.524h20.638Zm111.749 0a3.762 3.762 0 1 1 0 7.524h-20.638a3.762 3.762 0 0 1 0-7.524h20.638Z" fill="#F3EDD8"/><path d="M429.558 156.925c0 6.122-4.964 11.086-11.084 11.086-6.121 0-11.082-4.964-11.082-11.086 0-6.124 4.961-11.088 11.082-11.088 6.12 0 11.084 4.964 11.084 11.088Z" fill="#ED6DA8"/><path d="M426.323 156.925a7.85 7.85 0 1 1-15.699 0 7.85 7.85 0 1 1 15.699 0Zm8.382-28.972c.203 1.395-.959 2.544-2.368 2.544-1.41 0-2.525-1.155-2.812-2.534-1.171-5.625-6.16-9.855-12.135-9.855-5.968 0-10.955 4.23-12.125 9.854-.288 1.38-1.403 2.535-2.813 2.535-1.41 0-2.572-1.149-2.369-2.544 1.232-8.455 8.514-14.951 17.307-14.951 8.801 0 16.083 6.496 17.315 14.951Z" fill="#2E2E30"/><path d="M429.558 190.946c0 6.125-4.964 11.088-11.084 11.088-6.121 0-11.082-4.963-11.082-11.088 0-6.122 4.961-11.086 11.082-11.086 6.12 0 11.084 4.964 11.084 11.086Z" fill="#ED6DA8"/><path d="M426.323 190.946a7.85 7.85 0 0 1-7.849 7.855 7.852 7.852 0 0 1-7.85-7.855 7.85 7.85 0 1 1 15.699 0Z" fill="#2E2E30"/><path d="M249.106 274.789c0 5.852-4.743 10.596-10.591 10.596-5.851 0-10.593-4.744-10.593-10.596 0-5.851 4.742-10.594 10.593-10.594 5.848 0 10.591 4.743 10.591 10.594Zm21.805-24.491a6.977 6.977 0 1 1-13.951 0 6.976 6.976 0 1 1 13.951 0ZM29.42 121.75a6.976 6.976 0 1 1-13.95 0 6.977 6.977 0 1 1 13.951 0Z" fill="#D55593"/><path d="M299.412 72.071a6.98 6.98 0 0 1-6.977 6.979 6.979 6.979 0 0 1 0-13.957 6.979 6.979 0 0 1 6.977 6.978Zm24.89 1.653a4.789 4.789 0 0 1-4.788 4.79 4.79 4.79 0 0 1 0-9.58 4.79 4.79 0 0 1 4.788 4.79Zm93.672-17.264a4.79 4.79 0 0 1-4.788 4.791 4.79 4.79 0 0 1 0-9.58 4.788 4.788 0 0 1 4.788 4.789Zm76.352 24.243a6.977 6.977 0 1 1-13.952 0 6.977 6.977 0 1 1 13.952 0Z" fill="#ED6CA6"/><path d="M541.615 202.99a6.977 6.977 0 1 1-13.951 0 6.976 6.976 0 1 1 13.951 0Z" fill="#D55593"/><path d="M547.626 309.114a6.976 6.976 0 1 1-13.952 0 6.976 6.976 0 1 1 13.952 0Zm-304.182 35.355a6.977 6.977 0 1 1-13.951 0 6.977 6.977 0 0 1 6.975-6.978 6.978 6.978 0 0 1 6.976 6.978Zm-119.208-2.7a6.977 6.977 0 1 1-13.951 0 6.976 6.976 0 1 1 13.951 0Z" fill="#ED6CA6"/><path d="M551.002 234.83c0 5.719-4.635 10.355-10.352 10.355-5.715 0-10.349-4.636-10.349-10.355 0-5.717 4.634-10.354 10.349-10.354 5.717 0 10.352 4.637 10.352 10.354Z" fill="#D55593"/><path d="M348.671 121.75a6.975 6.975 0 1 1-13.951 0 6.976 6.976 0 1 1 13.951 0ZM524.33 61.573c4.536 4.538 4.536 11.892 0 16.428-4.533 4.537-11.887 4.537-16.422 0-4.534-4.536-4.534-11.89 0-16.428 4.535-4.537 11.889-4.537 16.422 0ZM334.701 295.521c4.536 4.537 4.536 11.891 0 16.429-4.535 4.537-11.887 4.537-16.423 0-4.534-4.538-4.534-11.892 0-16.429 4.536-4.537 11.888-4.537 16.423 0Z" fill="#ED6CA6"/><path d="M334.701 295.521c4.536 4.537 4.536 11.891 0 16.429-4.535 4.537-11.887 4.537-16.423 0-4.534-4.538-4.534-11.892 0-16.429 4.536-4.537 11.888-4.537 16.423 0Z" fill="#ED6CA6"/><path d="M500.477 129.236c-.206-.726-1.234-.726-1.439 0-.777 2.739-.777 7.288 0 10.028.205.725 1.233.725 1.439 0 .776-2.738.776-7.29 0-10.028Zm-152.321 9.217c-.205-.725-1.233-.725-1.439 0-.777 2.74-.777 7.289 0 10.028.206.725 1.234.726 1.439 0 .779-2.738.779-7.29 0-10.028Zm194.18 191.09c-.206-.725-1.234-.725-1.44 0-.778 2.739-.778 7.29 0 10.029.206.725 1.234.725 1.44 0 .777-2.74.776-7.289 0-10.029Zm-266.319-4.897c-.206-.726-1.235-.726-1.441 0-.776 2.738-.776 7.29 0 10.028.206.726 1.235.726 1.441 0 .774-2.739.774-7.29 0-10.028Zm41.672-54.87c-.206-.726-1.235-.726-1.441 0-.775 2.739-.775 7.289 0 10.028.206.726 1.235.726 1.441 0 .776-2.738.776-7.29 0-10.028ZM450.828 86.485c-.206-.725-1.234-.725-1.44 0-.777 2.74-.777 7.288 0 10.028.206.725 1.234.725 1.44 0 .775-2.74.775-7.287 0-10.028Zm74.556 31.699c-.146-.515-.877-.516-1.023 0-.555 1.947-.554 5.185 0 7.132.146.516.877.516 1.023 0 .552-1.948.552-5.184 0-7.132Z" fill="#FEFEFE"/><path d="M366.028 53.25c-.146-.516-.878-.516-1.024 0-.552 1.95-.553 5.185 0 7.134.146.516.878.516 1.024 0 .553-1.949.552-5.185 0-7.134Zm-81.663 42.236c-.146-.517-.878-.517-1.024 0-.552 1.948-.553 5.184 0 7.133.146.516.878.516 1.024 0 .553-1.949.552-5.185 0-7.133Zm-12.474 102.316c-.28-.987-1.68-.987-1.96 0-1.058 3.73-1.058 9.927 0 13.657.28.987 1.68.987 1.96 0 1.056-3.731 1.057-9.926 0-13.657ZM123 51.557c-.28-.988-1.68-.988-1.96 0-1.058 3.73-1.057 9.927 0 13.657.28.987 1.68.987 1.96 0 1.058-3.73 1.058-9.927 0-13.657Zm29.99 261.508c-.28-.987-1.68-.987-1.96 0-1.058 3.731-1.058 9.928 0 13.658.28.988 1.68.988 1.96 0 1.058-3.73 1.058-9.927 0-13.658Zm131.449-133.17c-.168-.591-1.004-.591-1.172 0-.631 2.229-.631 5.931 0 8.161.168.59 1.005.59 1.172 0 .632-2.229.632-5.932 0-8.161ZM137.218 39.004c-.167-.591-1.004-.591-1.172 0-.631 2.229-.63 5.931 0 8.16.168.59 1.005.59 1.172 0 .633-2.229.633-5.932 0-8.16Z" fill="#34BDB8"/><path d="M293.627 309.615c-.146-.516-.878-.516-1.024 0-.553 1.948-.553 5.184 0 7.132.146.516.878.516 1.024 0 .552-1.948.552-5.184 0-7.132Zm211.36-34.473c-.146-.515-.877-.515-1.023 0-.553 1.949-.553 5.184 0 7.132.146.516.877.516 1.023 0 .554-1.947.554-5.184 0-7.132ZM364.873 126.931c-.146-.515-.877-.515-1.023 0-.554 1.949-.554 5.185 0 7.133.146.516.877.516 1.023 0 .551-1.949.551-5.183 0-7.133ZM34.586 29.206a.79.79 0 0 0-1.392-.744l-.165.305a1.369 1.369 0 0 1-2.404.012l-.179-.324a.789.789 0 0 0-1.387.753l1.691 3.16c.133.247.202.524.202.805v.815a.891.891 0 0 0 1.783 0v-.857c0-.286.07-.567.204-.82l1.647-3.105Zm4.463-1.208c-2.115 0-3.693 1.472-3.693 3.46 0 1.998 1.578 3.5 3.693 3.5 2.114 0 3.692-1.502 3.692-3.5 0-1.978-1.578-3.46-3.692-3.46Zm.02 1.52c1.022 0 1.84.839 1.84 1.95s-.818 1.969-1.84 1.969c-1.014 0-1.881-.858-1.881-1.97 0-1.11.857-1.948 1.88-1.948Zm6.224 2.496v-3.076a.891.891 0 0 0-1.783 0v3.076c0 1.803 1.237 2.943 3.166 2.943 1.92 0 3.128-1.14 3.128-2.943v-3.076a.891.891 0 0 0-1.783 0v3.076c0 .887-.546 1.423-1.335 1.423-.809 0-1.393-.546-1.393-1.423Zm10.324 2.865a.83.83 0 0 0 .701-1.277l-.075-.118c-.287-.45-.098-1.041.22-1.47.305-.409.465-.938.465-1.57 0-1.52-1.033-2.397-2.845-2.397a3.07 3.07 0 0 0-3.07 3.069v2.872a.892.892 0 0 0 1.783 0v-.054c0-.522.424-.946.946-.946h.34c.025 0 .047.014.058.035l.742 1.412a.83.83 0 0 0 .735.444Zm-2.82-4.361c0-.58.469-1.048 1.047-1.048h.248c.721 0 1.14.36 1.14 1.033 0 .692-.419 1.062-1.14 1.062h-.248a1.047 1.047 0 0 1-1.047-1.047Zm6.316-2.471c-.578 0-1.047.468-1.047 1.046v4.953a.833.833 0 0 0 1.666 0v-.196c0-.986 1.254-1.407 1.85-.62l.936 1.236a1.041 1.041 0 0 0 1.871-.628v-4.963a.828.828 0 0 0-1.656 0v.203c0 .99-1.259 1.41-1.854.62l-.93-1.234a1.047 1.047 0 0 0-.836-.417Zm11.415 6.277a.868.868 0 1 0 1.61-.649l-2.004-4.78a1.384 1.384 0 0 0-2.547-.01l-2.075 4.832a.834.834 0 1 0 1.541.635l.03-.077a.955.955 0 0 1 .89-.604h1.654c.39 0 .74.24.882.604l.019.05Zm-1.721-2.018a.647.647 0 1 1 .604-.879.647.647 0 0 1-.604.88Zm5.636-4.26c-.655 0-1.186.532-1.186 1.186v4.853c0 .439.356.794.795.794h.047a.746.746 0 0 0 .747-.746v-.083c0-.79 1.081-1.015 1.397-.29a.73.73 0 0 0 .669.437h.211a.733.733 0 0 0 .672-.44c.317-.727 1.402-.502 1.404.29v.084a.75.75 0 0 0 .75.748h.04a.79.79 0 0 0 .79-.79v-4.857a1.186 1.186 0 0 0-2.265-.49l-.094.207c-.547 1.204-2.256 1.204-2.803 0l-.095-.207a1.186 1.186 0 0 0-1.08-.695Zm10.354 0a2.694 2.694 0 0 0-2.694 2.695v1.395a2.743 2.743 0 0 0 2.743 2.743h2.031a.712.712 0 0 0 0-1.423H84.53a.644.644 0 0 1-.002-1.288l1.907-.006a.708.708 0 0 0-.002-1.415h-1.909a.638.638 0 0 1 0-1.277h2.256a.712.712 0 0 0 0-1.423h-1.983Z" fill="#FEFEFE"/><path d="M59.147 152.846c1.73 0 2.779-1.911 1.849-3.37l-.199-.311c-.756-1.186-.258-2.748.581-3.877.804-1.081 1.226-2.478 1.226-4.143 0-4.012-2.725-6.326-7.507-6.326H52a5 5 0 0 0-5 5v10.675a2.352 2.352 0 0 0 4.705 0v-.142a2.495 2.495 0 0 1 2.494-2.495h.9c.063 0 .12.036.15.092l1.958 3.725a2.192 2.192 0 0 0 1.94 1.172Zm-7.443-11.508a2.765 2.765 0 0 1 2.764-2.765h.654c1.903 0 3.008.952 3.008 2.726 0 1.827-1.105 2.803-3.008 2.803h-.654a2.765 2.765 0 0 1-2.764-2.764Zm20.36-2.559c-4.576 0-7.584 2.829-7.584 7.099 0 4.294 3.008 7.123 7.585 7.123 4.575 0 7.61-2.829 7.61-7.123 0-4.27-3.035-7.099-7.61-7.099Zm0 3.704c1.8 0 3.009 1.388 3.009 3.446 0 2.083-1.209 3.471-3.008 3.471-1.775 0-2.983-1.388-2.983-3.471 0-2.058 1.208-3.446 2.983-3.446Zm17.527.341c.957.413 2.09.77 2.992.246.95-.552 1.29-1.804.473-2.539-1.25-1.127-2.96-1.752-4.976-1.752-4.32 0-7.198 2.855-7.198 7.175 0 4.244 2.854 7.047 7.146 7.047 2.178 0 3.98-.656 5.219-1.854.749-.724.393-1.897-.51-2.415-.957-.548-2.174-.066-3.199.34a3.446 3.446 0 0 1-1.278.225c-1.646 0-2.776-1.336-2.776-3.368 0-2.006 1.13-3.37 2.776-3.37.489 0 .933.093 1.33.265Zm15.267 8.853a2.28 2.28 0 0 0 1.992 1.169c1.78 0 2.874-1.947 1.949-3.467l-2.132-3.506a2.397 2.397 0 0 1 .307-2.894l.819-.864c1.138-1.202.286-3.181-1.368-3.181-.519 0-1.014.213-1.37.59l-.093.098c-1.366 1.446-3.797.479-3.797-1.51v-2.059a2.288 2.288 0 1 0-4.575 0v14.506a2.287 2.287 0 0 0 4.575 0v-1.023a1.163 1.163 0 0 1 2.179-.568l1.514 2.709Zm13.275-12.898c-4.346 0-7.251 2.854-7.251 7.175 0 4.244 2.802 7.047 7.354 7.047 1.907 0 3.547-.482 4.843-1.383.757-.525.715-1.594.064-2.245-.68-.681-1.775-.638-2.647-.232a4.382 4.382 0 0 1-1.85.414c-2.175 0-1.009-2.444 1.166-2.444h1.309c2.264 0 4.305-1.835 3.585-3.981-.915-2.73-3.151-4.351-6.573-4.351Zm.178 5.89c-1.519 0-2.73-1.664-1.39-2.379.36-.192.773-.296 1.237-.296.65 0 1.209.192 1.638.534 1.044.832-.15 2.141-1.485 2.141Zm17.847 5.95c-.248-.916-1.242-1.27-2.191-1.27-.796.026-1.26-.438-1.26-1.467v-3.445a1.8 1.8 0 0 1 1.8-1.8h.282a1.518 1.518 0 1 0 0-3.035h-.282a1.8 1.8 0 0 1-1.8-1.8v-.129a1.928 1.928 0 0 0-1.928-1.928h-.694a1.928 1.928 0 0 0-1.928 1.928v.965a.965.965 0 0 1-.964.964.964.964 0 0 0-.964.964v1.107c0 .533.432.964.964.964s.964.432.964.964v5.003c0 2.879 1.954 4.473 4.653 4.448.869 0 1.749-.135 2.532-.387.753-.242 1.08-1.067.874-1.831l-.058-.215Zm24.647-12.743c.735-1.386-.27-3.057-1.84-3.057-.766 0-1.47.421-1.833 1.096l-.433.805c-1.356 2.519-4.963 2.537-6.344.032l-.472-.856a2.084 2.084 0 0 0-1.824-1.077c-1.572 0-2.577 1.677-1.835 3.064l4.46 8.336c.35.653.533 1.383.533 2.124v2.151a2.352 2.352 0 1 0 4.704 0v-2.261c0-.753.185-1.495.538-2.161l4.346-8.196Zm8.074.903c-4.577 0-7.585 2.829-7.585 7.098 0 4.295 3.008 7.124 7.585 7.124 4.576 0 7.609-2.829 7.609-7.124 0-4.269-3.033-7.098-7.609-7.098Zm0 3.704c1.799 0 3.008 1.388 3.008 3.446 0 2.083-1.209 3.471-3.008 3.471-1.774 0-2.982-1.388-2.982-3.471 0-2.058 1.208-3.446 2.982-3.446Zm21.234-3.549a2.288 2.288 0 0 0-2.288 2.287v4.578c0 1.827-.977 3.112-2.597 3.139-1.363 0-2.237-.953-2.237-2.52v-5.197a2.287 2.287 0 0 0-4.575 0v6.508c0 3.24 1.954 5.323 4.961 5.323 1.319-.017 2.433-.388 3.31-1.113.381-.314 1.138-.07 1.138.423 0 .268.217.484.484.484h1.804a2.288 2.288 0 0 0 2.288-2.287v-9.338a2.288 2.288 0 0 0-2.288-2.287Zm11.532.94c-.393.321-1.171.067-1.171-.441a.5.5 0 0 0-.5-.499h-1.789a2.288 2.288 0 0 0-2.288 2.288v9.336a2.288 2.288 0 0 0 4.577 0v-4.81c.156-1.305.983-2.245 2.291-2.636 1.128-.339 2.181-1.19 2.181-2.368v-.83c0-.641-.525-1.175-1.153-1.048a4.884 4.884 0 0 0-2.148 1.008ZM77.423 165.68h-3.56a5 5 0 0 0-5 5v8.027a5 5 0 0 0 5 5h3.894c4.243 0 6.942-1.928 6.942-5.015 0-.346-.032-.68-.093-.999-.254-1.319-.499-6.118-.499-7.461 0-2.778-2.596-4.552-6.684-4.552Zm-.256 7.175h-1.85a1.749 1.749 0 0 1 0-3.498h1.85c1.311-.025 2.108.617 2.108 1.698 0 1.132-.797 1.8-2.108 1.8Zm0 7.2h-1.709a1.89 1.89 0 1 1 0-3.78h1.71c1.644-.025 2.672.694 2.672 1.826 0 1.234-1.028 1.954-2.673 1.954Zm21.388-10.261a2.289 2.289 0 0 0-2.288 2.289v4.577c0 1.827-.976 3.112-2.596 3.139-1.363 0-2.237-.953-2.237-2.52v-5.197a2.288 2.288 0 0 0-4.575 0v6.508c0 3.24 1.953 5.323 4.96 5.323 1.32-.017 2.433-.388 3.31-1.113.38-.313 1.138-.069 1.138.424 0 .267.217.483.484.483h1.804a2.288 2.288 0 0 0 2.289-2.288v-9.336a2.29 2.29 0 0 0-2.289-2.289Zm13.49 3.666c.889.358 1.933.04 2.373-.811.419-.81.141-1.82-.699-2.174a11.257 11.257 0 0 0-4.342-.887c-3.264 0-5.706 1.595-5.706 4.501 0 4.809 7.172 3.858 7.172 5.761 0 .566-.617.848-1.466.848-1.016 0-2.144-.268-3.252-.767-.929-.419-2.086-.129-2.531.787-.345.708-.152 1.575.539 1.953 1.505.824 3.292 1.242 5.141 1.242 3.394 0 5.888-1.621 5.888-4.475.025-4.834-7.275-3.96-7.275-5.787 0-.59.54-.874 1.311-.874.775 0 1.754.241 2.847.683Zm7.873-9.683c-1.208 0-2.082.874-2.082 2.109 0 1.209.874 2.083 2.082 2.083 1.208 0 2.083-.874 2.083-2.083 0-1.235-.875-2.109-2.083-2.109Zm-.013 6.017a2.276 2.276 0 0 0-2.275 2.276v9.362a2.274 2.274 0 1 0 4.55 0v-9.362a2.275 2.275 0 0 0-2.275-2.276Zm14.948-.179c-1.364 0-2.532.383-3.447 1.118-.392.315-1.154.062-1.154-.441a.498.498 0 0 0-.498-.498h-1.79a2.288 2.288 0 0 0-2.287 2.288v9.338a2.287 2.287 0 0 0 4.575 0v-5.067c.181-1.57 1.183-2.624 2.725-2.65 1.439 0 2.365.977 2.365 2.547v5.182a2.274 2.274 0 1 0 4.55 0v-6.494c0-3.267-2.004-5.323-5.039-5.323Zm14.269.025c-4.346 0-7.251 2.854-7.251 7.175 0 4.244 2.804 7.047 7.354 7.047 1.909 0 3.548-.482 4.844-1.383.756-.525.714-1.594.064-2.245-.681-.681-1.775-.638-2.648-.232a4.38 4.38 0 0 1-1.849.414c-2.175 0-1.01-2.444 1.165-2.444h1.31c2.264 0 4.305-1.835 3.585-3.981-.915-2.73-3.152-4.351-6.574-4.351Zm.178 5.89c-1.519 0-2.73-1.663-1.39-2.379a2.59 2.59 0 0 1 1.237-.296c.65 0 1.209.192 1.638.534 1.045.831-.15 2.141-1.485 2.141Zm16.912-2.07c.888.358 1.932.04 2.372-.811.419-.81.141-1.82-.699-2.174a11.257 11.257 0 0 0-4.342-.887c-3.264 0-5.706 1.595-5.706 4.501 0 4.809 7.172 3.858 7.172 5.761 0 .566-.616.848-1.466.848-1.016 0-2.144-.268-3.252-.767-.929-.419-2.086-.129-2.531.787-.345.708-.152 1.575.539 1.953 1.505.824 3.292 1.242 5.141 1.242 3.394 0 5.888-1.621 5.888-4.475.025-4.834-7.275-3.96-7.275-5.787 0-.59.54-.874 1.311-.874.775 0 1.754.241 2.848.683Zm13.289-.001c.889.359 1.933.041 2.373-.81.419-.81.141-1.82-.699-2.174a11.251 11.251 0 0 0-4.34-.887c-3.266 0-5.708 1.595-5.708 4.501 0 4.809 7.172 3.858 7.172 5.761 0 .566-.617.848-1.464.848-1.018 0-2.146-.268-3.254-.767-.929-.419-2.085-.129-2.531.787-.345.708-.152 1.575.539 1.953 1.506.824 3.292 1.242 5.143 1.242 3.393 0 5.886-1.621 5.886-4.475.027-4.834-7.275-3.96-7.275-5.787 0-.59.54-.874 1.311-.874.775 0 1.754.241 2.847.682Z" fill="#5E489A"/><path d="M155.707 274.517H94.746c-7.23 0-13.093-5.422-13.093-12.108 0-6.689 5.863-12.111 13.093-12.111h60.961c7.231 0 13.092 5.422 13.092 12.111 0 6.686-5.861 12.108-13.092 12.108Z" fill="#34BDB8"/><path d="M106.216 257.405c-.935 0-1.694.758-1.694 1.693v6.933c0 .626.508 1.134 1.135 1.134h.068c.589 0 1.066-.477 1.066-1.066v-.118c0-1.129 1.546-1.451 1.997-.416.165.38.54.626.954.626h.303c.416 0 .793-.247.959-.629.453-1.039 2.004-.718 2.006.416l.001.118a1.07 1.07 0 0 0 1.071 1.069h.057c.624 0 1.129-.505 1.129-1.128v-6.939a1.693 1.693 0 0 0-3.235-.701l-.135.297c-.782 1.72-3.224 1.72-4.006 0l-.134-.297a1.695 1.695 0 0 0-1.542-.992Zm15.594-.07c-3.02 0-5.275 2.103-5.275 4.943 0 2.854 2.255 4.999 5.275 4.999 3.02 0 5.275-2.145 5.275-4.999 0-2.827-2.255-4.943-5.275-4.943Zm.028 2.172c1.461 0 2.63 1.198 2.63 2.785 0 1.587-1.169 2.813-2.63 2.813-1.448 0-2.687-1.226-2.687-2.813 0-1.587 1.225-2.785 2.687-2.785Zm13.091 7.658a1.187 1.187 0 0 0 1.001-1.825l-.107-.168c-.41-.642-.14-1.487.314-2.099.435-.585.664-1.341.664-2.243 0-2.172-1.476-3.425-4.065-3.425a4.384 4.384 0 0 0-4.384 4.384v4.103a1.273 1.273 0 0 0 2.547 0v-.077c0-.746.605-1.351 1.351-1.351h.486c.035 0 .066.019.082.049l1.06 2.018c.205.39.61.634 1.051.634Zm-4.03-6.231c0-.826.67-1.496 1.497-1.496h.354c1.03 0 1.629.515 1.629 1.476 0 .988-.599 1.517-1.629 1.517h-.354c-.827 0-1.497-.67-1.497-1.497Zm11.379-3.529a3.848 3.848 0 0 0-3.849 3.848v1.994a3.919 3.919 0 0 0 3.919 3.918h2.901a1.017 1.017 0 0 0 0-2.033h-3.352a.92.92 0 0 1-.003-1.84l2.724-.008a1.01 1.01 0 0 0-.003-2.022h-2.726a.912.912 0 1 1 0-1.824h3.221a1.017 1.017 0 0 0 0-2.033h-2.832Z" fill="#FEFEFE"/><path d="M48.898 204.103a1.054 1.054 0 0 1-1.054-1.054v-2.664a.41.41 0 1 0-.821 0v2.998c0 .809.656 1.465 1.465 1.465h1.092a.373.373 0 0 0 0-.745h-.682Zm3.727-2.987c-1.148 0-1.935.759-1.935 1.88 0 1.114.787 1.88 1.935 1.88 1.142 0 1.928-.766 1.928-1.88 0-1.121-.786-1.88-1.928-1.88Zm0 .689c.661 0 1.128.488 1.128 1.198 0 .717-.467 1.204-1.128 1.204-.668 0-1.134-.487-1.134-1.204 0-.71.466-1.198 1.134-1.198Zm3.911-.52a.14.14 0 0 0-.14-.141h-.26a.4.4 0 0 0-.4.4v2.904a.4.4 0 0 0 .8 0v-1.536c.051-.514.372-.899.89-1.004.209-.043.39-.206.39-.42v-.07c0-.167-.135-.305-.3-.277a1.322 1.322 0 0 0-.614.275c-.115.094-.366.018-.366-.131Zm3.814-.169c-1.1.007-1.872.766-1.872 1.887 0 1.114.752 1.873 1.893 1.873.524 0 .974-.154 1.319-.428.128-.103.125-.291.013-.411-.123-.131-.329-.129-.48-.033-.23.146-.5.224-.79.224-.822 0-.37-.926.453-.926.675 0 1.301-.547 1.073-1.182-.229-.635-.75-1.004-1.609-1.004Zm.035 1.601c-.586 0-1.033-.633-.496-.868a1.17 1.17 0 0 1 .468-.092c.214 0 .402.045.556.13.479.262.018.83-.528.83Zm7.711-1.601a3.03 3.03 0 0 0-.096.002c-.554.022-2.043-.002-2.597-.002-.392 0-.727.091-.985.294-.112.088-.358.013-.358-.13a.136.136 0 0 0-.136-.136h-.261a.397.397 0 0 0-.397.397v2.91a.397.397 0 1 0 .793 0v-1.434c0-.648.39-1.135 1.03-1.156.543 0 .87.341.87.905v1.682a.4.4 0 1 0 .8 0v-1.431c0-.648.384-1.135 1.017-1.156.543 0 .877.341.877.905v1.682a.4.4 0 0 0 .8 0v-1.905c0-.884-.508-1.427-1.357-1.427Zm5.317-1.517c-.264 0-.466.201-.466.487 0 .278.202.48.466.48a.461.461 0 0 0 .467-.48c0-.286-.202-.487-.467-.487Zm0 5.249a.397.397 0 0 0 .397-.397v-2.91a.397.397 0 0 0-.793 0v2.91c0 .219.177.397.396.397Zm4.058-3.732c-.384 0-.71.105-.964.301-.114.088-.33.014-.33-.13a.143.143 0 0 0-.144-.143h-.257a.4.4 0 0 0-.4.4v4.254a.4.4 0 0 0 .8 0v-.052c0-.445.864-.87 1.309-.87 1.057 0 1.753-.759 1.753-1.866 0-1.128-.716-1.894-1.767-1.894Zm-.167 3.077c-.662 0-1.128-.494-1.128-1.211 0-.696.466-1.197 1.128-1.197.66 0 1.127.508 1.127 1.197 0 .71-.466 1.211-1.127 1.211Zm4.224-3.084c-.71 0-1.364.321-1.364 1.072-.007 1.337 1.942.912 1.942 1.671 0 .279-.265.397-.606.397a2.06 2.06 0 0 1-.905-.234c-.18-.093-.423-.046-.514.136-.062.124-.035.276.08.353.361.242.845.372 1.304.372.745 0 1.42-.341 1.42-1.1.007-1.344-1.962-.975-1.962-1.657 0-.265.23-.369.542-.369.224 0 .486.058.734.16.185.075.407.013.496-.166.073-.149.028-.332-.121-.404a2.492 2.492 0 0 0-1.046-.231Zm5.874.435a.4.4 0 1 0-.8 0v1.424c0 .648-.376 1.142-1.017 1.156-.535 0-.862-.341-.862-.898v-1.682a.4.4 0 1 0-.8 0v1.904c0 .885.507 1.428 1.356 1.428.382-.005.708-.098.96-.295.114-.089.363-.013.363.131 0 .075.06.136.135.136h.265a.4.4 0 0 0 .4-.4v-2.904Zm6.36-.428-.095.002c-.554.022-2.043-.002-2.597-.002-.392 0-.727.091-.985.294-.113.088-.359.013-.359-.13a.136.136 0 0 0-.135-.136h-.261a.397.397 0 0 0-.397.397v2.91a.397.397 0 0 0 .793 0v-1.434c0-.648.39-1.135 1.03-1.156.543 0 .87.341.87.905v1.682a.4.4 0 0 0 .8 0v-1.431c0-.648.383-1.135 1.017-1.156.543 0 .877.341.877.905v1.682a.4.4 0 0 0 .8 0v-1.905c0-.884-.508-1.427-1.357-1.427Zm8.45-1.034a.4.4 0 0 0-.801 0v.154c0 .448-.867.873-1.315.873-1.044 0-1.76.759-1.76 1.873 0 1.128.71 1.901 1.774 1.901.393 0 .721-.105.975-.301.111-.086.326-.014.326.126 0 .077.063.14.14.14h.261a.4.4 0 0 0 .4-.4v-4.366Zm-1.935 4.132c-.675 0-1.134-.501-1.141-1.204.007-.71.473-1.218 1.141-1.218s1.134.501 1.134 1.218c0 .703-.466 1.204-1.134 1.204Zm5.087-3.098c-1.148 0-1.934.759-1.934 1.88 0 1.114.786 1.88 1.934 1.88 1.142 0 1.928-.766 1.928-1.88 0-1.121-.786-1.88-1.928-1.88Zm0 .689c.662 0 1.128.488 1.128 1.198 0 .717-.466 1.204-1.128 1.204-.668 0-1.134-.487-1.134-1.204 0-.71.466-1.198 1.134-1.198Zm3.546 3.043a.4.4 0 0 0 .401-.4v-4.366a.4.4 0 1 0-.801 0v4.366a.4.4 0 0 0 .4.4Zm3.553-3.732c-1.148 0-1.935.759-1.935 1.88 0 1.114.787 1.88 1.935 1.88 1.142 0 1.928-.766 1.928-1.88 0-1.121-.786-1.88-1.928-1.88Zm0 .689c.661 0 1.128.488 1.128 1.198 0 .717-.467 1.204-1.128 1.204-.668 0-1.134-.487-1.134-1.204 0-.71.466-1.198 1.134-1.198Zm3.911-.52a.14.14 0 0 0-.14-.141h-.26a.4.4 0 0 0-.4.4v2.904a.4.4 0 1 0 .8 0v-1.536c.051-.514.372-.899.889-1.004.21-.043.392-.206.392-.42v-.07c0-.167-.136-.305-.3-.277a1.324 1.324 0 0 0-.615.275c-.115.094-.366.018-.366-.131Zm5.54-.176c-.71 0-1.364.321-1.364 1.072-.007 1.337 1.942.912 1.942 1.671 0 .279-.265.397-.606.397-.282 0-.618-.085-.905-.234-.18-.093-.423-.046-.514.136-.062.124-.035.276.08.353.362.242.846.372 1.305.372.744 0 1.419-.341 1.419-1.1.007-1.344-1.962-.975-1.962-1.657 0-.265.229-.369.543-.369.223 0 .485.058.733.16.185.075.408.013.496-.166.074-.149.029-.332-.121-.404a2.493 2.493 0 0 0-1.046-.231Zm2.911-1.51c-.265 0-.467.201-.467.487 0 .278.202.48.467.48a.461.461 0 0 0 .466-.48c0-.286-.202-.487-.466-.487Zm0 5.249a.396.396 0 0 0 .396-.397v-2.91a.397.397 0 0 0-.793 0v2.91c0 .219.178.397.397.397Zm3.938-.49c-.063-.19-.277-.272-.472-.225a.871.871 0 0 1-.204.026c-.25 0-.396-.119-.396-.502v-1.229c0-.301.244-.546.546-.546h.247a.3.3 0 0 0 0-.599h-.285a.507.507 0 0 1-.508-.508v-.111a.397.397 0 1 0-.794 0v.358a.261.261 0 0 1-.261.261.261.261 0 0 0-.261.261v.077c0 .144.117.261.261.261.144 0 .261.117.261.261v1.66c0 .759.481 1.08 1.037 1.08.23 0 .456-.053.676-.15.142-.062.201-.227.153-.375Zm5.534.372c0 .065.053.118.118.118h.274a.393.393 0 0 0 .393-.394l-.006-2.036c-.007-.814-.543-1.302-1.496-1.302-.575 0-.931.107-1.323.313a.303.303 0 0 0-.113.422c.092.156.295.2.457.118.272-.137.542-.205.805-.205.584 0 .884.278.884.745 0 .061-.05.111-.112.111h-1.009c-.891.007-1.399.439-1.399 1.114 0 .654.501 1.149 1.302 1.149.393 0 .726-.087.98-.262.092-.063.245-.003.245.109Zm-1.058-.481c-.446 0-.717-.216-.717-.55 0-.355.244-.494.766-.494h.661c.188 0 .341.153.341.341-.042.404-.48.703-1.051.703Zm8.094-3.133-.097.002c-.553.022-2.043-.002-2.597-.002-.391 0-.726.091-.984.294-.113.088-.359.013-.359-.13a.135.135 0 0 0-.135-.136h-.261a.397.397 0 0 0-.397.397v2.91a.396.396 0 1 0 .793 0v-1.434c0-.648.39-1.135 1.03-1.156.543 0 .87.341.87.905v1.682a.4.4 0 0 0 .801 0v-1.431c0-.648.382-1.135 1.016-1.156.542 0 .877.341.877.905v1.682a.4.4 0 1 0 .8 0v-1.905c0-.884-.508-1.427-1.357-1.427Zm4.301 0c-1.1.007-1.872.766-1.872 1.887 0 1.114.751 1.873 1.893 1.873.524 0 .974-.154 1.318-.428.129-.103.126-.291.013-.411-.122-.131-.328-.129-.48-.033-.23.146-.5.224-.789.224-.822 0-.37-.926.453-.926.674 0 1.301-.547 1.072-1.182-.228-.635-.75-1.004-1.608-1.004Zm.035 1.601c-.586 0-1.033-.633-.497-.868.139-.06.296-.092.469-.092.214 0 .401.045.556.13.479.262.017.83-.528.83Zm4.892 1.641c-.062-.19-.277-.272-.472-.225a.856.856 0 0 1-.203.026c-.251 0-.397-.119-.397-.502v-1.229c0-.301.245-.546.547-.546h.247a.3.3 0 0 0 0-.599h-.285a.508.508 0 0 1-.509-.508v-.111a.397.397 0 1 0-.793 0v.358a.261.261 0 0 1-.261.261.261.261 0 0 0-.261.261v.077c0 .144.117.261.261.261.144 0 .261.117.261.261v1.66c0 .759.48 1.08 1.037 1.08.23 0 .456-.053.675-.15.143-.062.202-.227.153-.375Zm1.336-.353c-.25 0-.431.188-.431.446 0 .066.013.129.038.186.055.124.11.266.056.39l-.049.113a.2.2 0 0 0 .182.279.2.2 0 0 0 .166-.089l.338-.51a.64.64 0 0 0 .125-.369c0-.278-.202-.446-.425-.446Zm5.331-2.889c-1.099 0-1.865.766-1.865 1.887 0 1.114.766 1.873 1.865 1.873.583 0 1.051-.173 1.384-.481.119-.11.104-.294-.01-.408-.133-.133-.35-.12-.508-.019-.225.144-.506.218-.831.218-.64 0-1.099-.48-1.099-1.183 0-.703.459-1.184 1.099-1.184.293-.004.547.064.76.186.176.101.412.098.544-.056.11-.131.111-.326-.023-.432-.331-.26-.775-.401-1.316-.401Zm4.196 0c-1.149 0-1.935.759-1.935 1.88 0 1.114.786 1.88 1.935 1.88 1.141 0 1.927-.766 1.927-1.88 0-1.121-.786-1.88-1.927-1.88Zm0 .689c.661 0 1.127.488 1.127 1.198 0 .717-.466 1.204-1.127 1.204-.669 0-1.135-.487-1.135-1.204 0-.71.466-1.198 1.135-1.198Zm5.275-.689c-.404 0-.745.093-1.007.297-.114.09-.357.014-.357-.131a.138.138 0 0 0-.138-.138h-.262a.4.4 0 0 0-.401.4v2.904a.4.4 0 1 0 .801 0v-1.57c.055-.578.438-1.003 1.051-1.01.556 0 .891.341.891.898v1.682a.4.4 0 1 0 .8 0v-1.905c0-.884-.515-1.427-1.378-1.427Zm3.904-.007c-.71 0-1.364.321-1.364 1.072-.007 1.337 1.942.912 1.942 1.671 0 .279-.265.397-.606.397-.282 0-.618-.085-.905-.234-.18-.093-.423-.046-.514.136-.062.124-.035.276.08.353.362.242.846.372 1.305.372.744 0 1.419-.341 1.419-1.1.007-1.344-1.962-.975-1.962-1.657 0-.265.229-.369.543-.369.223 0 .485.058.733.16.185.075.408.013.496-.166.073-.149.029-.332-.121-.404a2.493 2.493 0 0 0-1.046-.231Zm4.037.007c-1.1.007-1.872.766-1.872 1.887 0 1.114.751 1.873 1.893 1.873.524 0 .974-.154 1.318-.428.129-.103.126-.291.013-.411-.122-.131-.328-.129-.48-.033-.23.146-.5.224-.789.224-.822 0-.37-.926.453-.926.674 0 1.301-.547 1.072-1.182-.228-.635-.75-1.004-1.608-1.004Zm.035 1.601c-.586 0-1.033-.633-.497-.868.139-.06.296-.092.469-.092.213 0 .401.045.556.13.478.262.017.83-.528.83Zm4.398-1.601c-1.1 0-1.865.766-1.865 1.887 0 1.114.765 1.873 1.865 1.873.583 0 1.05-.173 1.384-.481.118-.11.104-.294-.01-.408-.133-.133-.35-.12-.509-.019-.225.144-.506.218-.83.218-.641 0-1.1-.48-1.1-1.183 0-.703.459-1.184 1.1-1.184.293-.004.547.064.76.186.176.101.411.098.543-.056.111-.131.112-.326-.023-.432-.33-.26-.775-.401-1.315-.401Zm4.767 3.242c-.062-.19-.277-.272-.472-.225a.856.856 0 0 1-.203.026c-.25 0-.397-.119-.397-.502v-1.229c0-.301.245-.546.547-.546h.247a.3.3 0 0 0 0-.599h-.285a.508.508 0 0 1-.509-.508v-.111a.397.397 0 1 0-.793 0v.358a.261.261 0 0 1-.261.261.261.261 0 0 0-.261.261v.077c0 .144.117.261.261.261.144 0 .261.117.261.261v1.66c0 .759.48 1.08 1.037 1.08.23 0 .456-.053.676-.15.142-.062.201-.227.152-.375Zm2.653-3.242c-1.099.007-1.872.766-1.872 1.887 0 1.114.752 1.873 1.893 1.873.524 0 .974-.154 1.319-.428.128-.103.125-.291.013-.411-.123-.131-.329-.129-.48-.033-.23.146-.501.224-.789.224-.823 0-.37-.926.452-.926.675 0 1.301-.547 1.073-1.182-.229-.635-.751-1.004-1.609-1.004Zm.035 1.601c-.586 0-1.033-.633-.496-.868a1.17 1.17 0 0 1 .468-.092c.214 0 .402.045.556.13.479.262.018.83-.528.83Zm4.893 1.641c-.063-.19-.277-.272-.472-.225a.871.871 0 0 1-.204.026c-.25 0-.396-.119-.396-.502v-1.229c0-.301.244-.546.546-.546h.247a.3.3 0 0 0 0-.599h-.285a.507.507 0 0 1-.508-.508v-.111a.397.397 0 1 0-.794 0v.358a.26.26 0 0 1-.261.261.261.261 0 0 0-.261.261v.077c0 .144.117.261.261.261a.26.26 0 0 1 .261.261v1.66c0 .759.481 1.08 1.037 1.08.23 0 .456-.053.676-.15.142-.062.201-.227.153-.375Zm4.53-2.814a.4.4 0 1 0-.8 0v1.424c0 .648-.376 1.142-1.016 1.156-.536 0-.863-.341-.863-.898v-1.682a.4.4 0 0 0-.801 0v1.904c0 .885.508 1.428 1.358 1.428.381-.005.708-.098.96-.295.113-.089.362-.013.362.131 0 .075.061.136.135.136h.265a.4.4 0 0 0 .4-.4v-2.904Zm3.055-.428c-1.099.007-1.872.766-1.872 1.887 0 1.114.752 1.873 1.893 1.873.525 0 .974-.154 1.319-.428.129-.103.126-.291.013-.411-.123-.131-.329-.129-.48-.033-.23.146-.501.224-.789.224-.822 0-.37-.926.452-.926.675 0 1.301-.547 1.073-1.182-.228-.635-.751-1.004-1.609-1.004Zm.035 1.601c-.585 0-1.033-.633-.496-.868.139-.06.296-.092.468-.092.214 0 .402.045.557.13.478.262.017.83-.529.83Zm3.682-1.432a.14.14 0 0 0-.141-.141h-.259a.4.4 0 0 0-.401.4v2.904a.4.4 0 1 0 .801 0v-1.536c.051-.514.372-.899.889-1.004.209-.043.391-.206.391-.42v-.07c0-.167-.136-.305-.3-.277a1.32 1.32 0 0 0-.614.275c-.116.094-.366.018-.366-.131ZM51.829 213.084c0 .065.053.118.118.118h.275a.392.392 0 0 0 .392-.394l-.005-2.036c-.007-.814-.543-1.301-1.497-1.301-.574 0-.93.106-1.322.313a.302.302 0 0 0-.114.422c.092.156.296.199.457.118.273-.137.543-.206.805-.206.585 0 .884.278.884.745 0 .061-.05.111-.111.111H50.7c-.89.007-1.398.439-1.398 1.114 0 .655.5 1.149 1.301 1.149.393 0 .726-.086.98-.261.092-.063.245-.004.245.108Zm-1.058-.481c-.445 0-.717-.215-.717-.55 0-.355.244-.494.766-.494h.661c.188 0 .341.153.341.341-.042.404-.48.703-1.05.703Zm6.793-4.166a.4.4 0 1 0-.8 0v.153c0 .448-.868.874-1.316.874-1.044 0-1.76.758-1.76 1.872 0 1.128.71 1.901 1.774 1.901.393 0 .721-.104.975-.301.111-.086.326-.014.326.127a.14.14 0 0 0 .14.139h.26a.4.4 0 0 0 .4-.4v-4.365Zm-1.935 4.132c-.675 0-1.134-.502-1.141-1.205.007-.71.473-1.218 1.14-1.218.67 0 1.135.501 1.135 1.218 0 .703-.466 1.205-1.134 1.205Zm3.897-4.616c-.264 0-.466.202-.466.487 0 .279.202.481.466.481a.461.461 0 0 0 .467-.481c0-.285-.202-.487-.467-.487Zm0 5.249c.22 0 .397-.178.397-.397v-2.91a.397.397 0 0 0-.793 0v2.91c0 .219.177.397.396.397Zm4.058-3.731c-.384 0-.71.104-.964.3-.114.088-.33.015-.33-.129a.144.144 0 0 0-.144-.144h-.257a.4.4 0 0 0-.4.401v4.254a.4.4 0 1 0 .8 0v-.053c0-.445.864-.87 1.309-.87 1.058 0 1.753-.759 1.753-1.866 0-1.128-.716-1.893-1.767-1.893Zm-.167 3.077c-.662 0-1.128-.495-1.128-1.212 0-.696.466-1.197 1.128-1.197.66 0 1.127.508 1.127 1.197 0 .71-.466 1.212-1.127 1.212Zm3.514-4.595c-.264 0-.466.202-.466.487 0 .279.202.481.466.481a.461.461 0 0 0 .466-.481c0-.285-.201-.487-.466-.487Zm0 5.249c.22 0 .397-.178.397-.397v-2.91a.397.397 0 0 0-.793 0v2.91c0 .219.177.397.396.397Zm3.035-3.738c-.71 0-1.364.32-1.364 1.072-.007 1.336 1.941.912 1.941 1.671 0 .278-.264.396-.605.396-.282 0-.62-.085-.906-.233-.18-.094-.423-.047-.514.135-.061.124-.035.276.08.354.362.242.846.371 1.305.371.745 0 1.42-.341 1.42-1.1.007-1.344-1.963-.975-1.963-1.657 0-.265.23-.369.543-.369.223 0 .486.058.734.16.184.075.407.013.495-.166.074-.149.029-.332-.12-.404a2.491 2.491 0 0 0-1.046-.23Zm4.03.007c-1.1 0-1.866.765-1.866 1.886 0 1.114.766 1.873 1.865 1.873.583 0 1.05-.172 1.384-.481.118-.11.104-.293-.01-.407-.133-.133-.35-.12-.508-.019a1.523 1.523 0 0 1-.831.218c-.64 0-1.1-.481-1.1-1.184s.46-1.183 1.1-1.183c.293-.005.547.063.76.185.176.102.412.099.543-.056.111-.13.112-.326-.022-.431-.331-.26-.776-.401-1.316-.401Zm3.152-1.518c-.265 0-.466.202-.466.487a.46.46 0 0 0 .466.481.461.461 0 0 0 .466-.481c0-.285-.202-.487-.466-.487Zm0 5.249a.397.397 0 0 0 .397-.397v-2.91a.397.397 0 0 0-.793 0v2.91c0 .219.177.397.396.397Zm4.092-3.731c-.404 0-.745.092-1.007.297-.114.089-.357.014-.357-.131a.138.138 0 0 0-.138-.139h-.262a.4.4 0 0 0-.4.401v2.903a.4.4 0 0 0 .8 0v-1.57c.056-.578.438-1.003 1.05-1.01.558 0 .892.342.892.898v1.682a.4.4 0 1 0 .8 0v-1.904c0-.884-.515-1.427-1.378-1.427Zm6.137.424a.397.397 0 0 0-.397-.397h-.261a.136.136 0 0 0-.135.136c0 .135-.203.204-.31.122-.245-.189-.561-.29-.943-.285-.981.006-1.643.717-1.643 1.761 0 1.065.668 1.789 1.67 1.789.37 0 .677-.098.916-.281.106-.082.31-.013.31.121 0 .64-.46 1.051-1.163 1.051-.322 0-.598-.074-.855-.209-.172-.091-.393-.049-.492.118-.087.149-.045.343.107.425a2.63 2.63 0 0 0 1.275.328c1.162 0 1.921-.669 1.921-1.734v-2.945Zm-1.858 2.5c-.64 0-1.072-.474-1.079-1.142.007-.662.445-1.135 1.079-1.135.626 0 1.065.466 1.065 1.135 0 .668-.439 1.142-1.065 1.142Zm6.988-2.924c-1.1.006-1.872.765-1.872 1.886 0 1.114.752 1.873 1.893 1.873.525 0 .974-.154 1.319-.428.129-.102.126-.291.013-.411-.123-.131-.329-.129-.48-.033-.23.146-.5.225-.789.225-.822 0-.37-.926.452-.926.675 0 1.302-.548 1.073-1.183-.228-.634-.75-1.003-1.609-1.003Zm.036 1.601c-.586 0-1.034-.634-.497-.868.139-.061.296-.093.468-.093.214 0 .402.045.557.13.478.262.017.831-.528.831Zm3.316 2.13a.4.4 0 0 0 .4-.4v-4.365a.4.4 0 1 0-.8 0v4.365a.4.4 0 0 0 .4.4Zm2.362-5.249c-.264 0-.466.202-.466.487 0 .279.202.481.466.481a.461.461 0 0 0 .467-.481c0-.285-.202-.487-.467-.487Zm0 5.249c.22 0 .397-.178.397-.397v-2.91a.397.397 0 0 0-.793 0v2.91c0 .219.177.397.396.397Zm3.94-.489c-.063-.191-.277-.273-.472-.226a.871.871 0 0 1-.204.026c-.25 0-.396-.118-.396-.501v-1.229c0-.302.244-.547.546-.547h.247a.3.3 0 0 0 0-.598h-.285a.508.508 0 0 1-.508-.509v-.111a.397.397 0 0 0-.794 0v.359a.261.261 0 0 1-.261.261.26.26 0 0 0-.26.261v.076a.26.26 0 0 0 .26.261c.144 0 .261.117.261.261v1.661c0 .759.48 1.079 1.037 1.079.23 0 .456-.053.676-.149.142-.063.201-.228.153-.375Zm1.336-.353c-.251 0-.432.188-.432.445 0 .066.013.129.038.186.056.124.111.267.056.391l-.049.113a.199.199 0 0 0 .182.278.198.198 0 0 0 .166-.089l.338-.51a.638.638 0 0 0 .125-.369c0-.278-.202-.445-.424-.445Zm4.92-2.896c-.71 0-1.364.32-1.364 1.072-.007 1.336 1.942.912 1.942 1.671 0 .278-.265.396-.606.396a2.07 2.07 0 0 1-.905-.233c-.181-.094-.423-.047-.514.135-.062.124-.035.276.08.354.361.242.845.371 1.304.371.745 0 1.42-.341 1.42-1.1.007-1.344-1.962-.975-1.962-1.657 0-.265.229-.369.542-.369.224 0 .486.058.734.16.185.075.407.013.496-.166.073-.149.028-.332-.121-.404a2.496 2.496 0 0 0-1.046-.23Zm4.037.007c-1.1.006-1.873.765-1.873 1.886 0 1.114.752 1.873 1.893 1.873.525 0 .975-.154 1.319-.428.129-.102.126-.291.013-.411-.122-.131-.328-.129-.48-.033-.23.146-.501.225-.789.225-.822 0-.37-.926.452-.926.675 0 1.302-.548 1.073-1.183-.228-.634-.75-1.003-1.608-1.003Zm.035 1.601c-.586 0-1.034-.634-.497-.868.139-.061.296-.093.469-.093.213 0 .401.045.556.13.478.262.017.831-.528.831Zm6.409-2.635a.4.4 0 1 0-.8 0v.153c0 .448-.868.874-1.316.874-1.044 0-1.76.758-1.76 1.872 0 1.128.709 1.901 1.774 1.901.393 0 .722-.104.975-.301.111-.086.327-.014.327.127 0 .077.062.139.139.139h.261a.4.4 0 0 0 .4-.4v-4.365Zm-1.935 4.132c-.675 0-1.134-.502-1.141-1.205.007-.71.473-1.218 1.141-1.218s1.135.501 1.135 1.218c0 .703-.467 1.205-1.135 1.205Zm9.173-4.132a.4.4 0 1 0-.8 0v.153c0 .448-.868.874-1.316.874-1.044 0-1.76.758-1.76 1.872 0 1.128.709 1.901 1.774 1.901.393 0 .721-.104.975-.301.111-.086.327-.014.327.127 0 .077.062.139.139.139h.261a.4.4 0 0 0 .4-.4v-4.365Zm-1.935 4.132c-.675 0-1.134-.502-1.141-1.205.007-.71.473-1.218 1.141-1.218s1.135.501 1.135 1.218c0 .703-.467 1.205-1.135 1.205Zm3.898-4.616c-.265 0-.467.202-.467.487 0 .279.202.481.467.481a.461.461 0 0 0 .466-.481c0-.285-.202-.487-.466-.487Zm0 5.249a.396.396 0 0 0 .396-.397v-2.91a.397.397 0 1 0-.793 0v2.91c0 .219.177.397.397.397Zm4.147-.118c0 .065.053.118.119.118h.274a.393.393 0 0 0 .393-.394l-.006-2.036c-.007-.814-.543-1.301-1.496-1.301-.575 0-.931.106-1.323.313a.302.302 0 0 0-.113.422c.091.156.295.199.457.118.272-.137.542-.206.805-.206.584 0 .884.278.884.745 0 .061-.05.111-.112.111h-1.009c-.891.007-1.399.439-1.399 1.114 0 .655.501 1.149 1.302 1.149.393 0 .726-.086.98-.261.092-.063.244-.004.244.108Zm-1.057-.481c-.446 0-.717-.215-.717-.55 0-.355.243-.494.765-.494h.661c.189 0 .342.153.342.341-.042.404-.481.703-1.051.703Zm8.094-3.132-.097.001c-.553.023-2.043-.001-2.597-.001-.392 0-.726.091-.984.293-.113.089-.359.013-.359-.13a.136.136 0 0 0-.136-.136h-.261a.396.396 0 0 0-.396.397v2.91a.397.397 0 0 0 .793 0v-1.434c0-.647.39-1.135 1.03-1.156.543 0 .87.342.87.905v1.682a.4.4 0 1 0 .8 0v-1.431c0-.647.383-1.135 1.016-1.156.543 0 .877.342.877.905v1.682a.4.4 0 1 0 .801 0v-1.904c0-.884-.508-1.427-1.357-1.427Zm7.084 0c-.404 0-.745.092-1.006.297-.115.089-.358.014-.358-.131a.138.138 0 0 0-.138-.139h-.262a.4.4 0 0 0-.4.401v2.903a.4.4 0 1 0 .8 0v-1.57c.056-.578.439-1.003 1.051-1.01.557 0 .891.342.891.898v1.682a.4.4 0 1 0 .8 0v-1.904c0-.884-.515-1.427-1.378-1.427Zm4.385 0c-1.148 0-1.935.758-1.935 1.879 0 1.114.787 1.88 1.935 1.88 1.141 0 1.928-.766 1.928-1.88 0-1.121-.787-1.879-1.928-1.879Zm0 .689c.661 0 1.127.487 1.127 1.197 0 .717-.466 1.205-1.127 1.205-.668 0-1.135-.488-1.135-1.205 0-.71.467-1.197 1.135-1.197Zm5.275-.689c-.404 0-.745.092-1.006.297-.115.089-.358.014-.358-.131a.138.138 0 0 0-.138-.139h-.262a.4.4 0 0 0-.4.401v2.903a.4.4 0 1 0 .8 0v-1.57c.056-.578.439-1.003 1.051-1.01.557 0 .891.342.891.898v1.682a.4.4 0 1 0 .8 0v-1.904c0-.884-.515-1.427-1.378-1.427Zm6.159.428a.4.4 0 1 0-.8 0v1.423c0 .648-.376 1.142-1.016 1.156-.536 0-.863-.341-.863-.898v-1.681a.4.4 0 1 0-.8 0v1.904c0 .884.508 1.427 1.357 1.427.381-.004.708-.097.96-.295.113-.088.362-.012.362.132 0 .074.061.135.136.135h.264a.4.4 0 0 0 .4-.4v-2.903Zm6.361-.428-.096.001c-.554.023-2.043-.001-2.597-.001-.392 0-.727.091-.984.293-.113.089-.359.013-.359-.13a.136.136 0 0 0-.136-.136h-.261a.397.397 0 0 0-.397.397v2.91a.397.397 0 0 0 .794 0v-1.434c0-.647.39-1.135 1.03-1.156.543 0 .87.342.87.905v1.682a.4.4 0 1 0 .8 0v-1.431c0-.647.383-1.135 1.016-1.156.543 0 .877.342.877.905v1.682a.4.4 0 0 0 .801 0v-1.904c0-.884-.509-1.427-1.358-1.427Zm7.607 0-.096.001c-.554.023-2.043-.001-2.597-.001-.392 0-.727.091-.985.293-.112.089-.358.013-.358-.13a.136.136 0 0 0-.136-.136h-.261a.397.397 0 0 0-.397.397v2.91a.397.397 0 0 0 .794 0v-1.434c0-.647.389-1.135 1.03-1.156.543 0 .87.342.87.905v1.682a.4.4 0 1 0 .8 0v-1.431c0-.647.383-1.135 1.016-1.156.543 0 .877.342.877.905v1.682a.4.4 0 1 0 .8 0v-1.904c0-.884-.508-1.427-1.357-1.427Zm5.603.532a.368.368 0 1 0-.687-.263l-.128.348c-.285.775-1.377.788-1.68.02l-.146-.37a.38.38 0 1 0-.702.286l1.192 2.841a.7.7 0 0 1-.007.56c-.125.278-.32.411-.564.411a.59.59 0 0 1-.112-.01c-.215-.036-.46-.003-.565.187-.084.152-.051.348.102.43.184.098.381.145.61.145.557 0 .975-.293 1.204-.878l1.483-3.707Zm5.414-.532c-.404 0-.745.092-1.007.297-.114.089-.357.014-.357-.131a.138.138 0 0 0-.138-.139h-.262a.4.4 0 0 0-.4.401v2.903a.4.4 0 1 0 .8 0v-1.57c.056-.578.438-1.003 1.051-1.01.557 0 .891.342.891.898v1.682a.4.4 0 1 0 .8 0v-1.904c0-.884-.515-1.427-1.378-1.427Zm3.193-1.518c-.264 0-.466.202-.466.487 0 .279.202.481.466.481a.46.46 0 0 0 .466-.481c0-.285-.201-.487-.466-.487Zm0 5.249a.397.397 0 0 0 .397-.397v-2.91a.397.397 0 0 0-.794 0v2.91c0 .219.178.397.397.397Zm4.058-3.731c-.442 0-1.295-.416-1.295-.857v-.177a.4.4 0 1 0-.8 0v4.365a.4.4 0 0 0 .4.4h.257a.143.143 0 0 0 .143-.143c0-.144.217-.218.331-.13.256.197.585.301.977.301 1.058 0 1.754-.759 1.754-1.866 0-1.128-.717-1.893-1.767-1.893Zm-.167 3.077c-.662 0-1.128-.495-1.128-1.212 0-.696.466-1.197 1.128-1.197.661 0 1.127.508 1.127 1.197 0 .71-.466 1.212-1.127 1.212Zm5.324-3.077c-.417 0-1.371-.488-1.371-.905v-.129a.4.4 0 1 0-.801 0v4.365a.4.4 0 0 0 .801 0v-1.424c0-.654.396-1.149 1.057-1.156.557 0 .891.342.891.898v1.682a.4.4 0 0 0 .801 0v-1.904c0-.884-.515-1.427-1.378-1.427ZM59.71 217.825c-1.1.007-1.872.766-1.872 1.887 0 1.113.752 1.872 1.893 1.872.524 0 .974-.154 1.318-.428.13-.102.126-.291.014-.411-.123-.131-.329-.129-.48-.033-.23.147-.501.225-.79.225-.822 0-.37-.926.453-.926.675 0 1.301-.547 1.073-1.182-.229-.635-.75-1.004-1.609-1.004Zm.035 1.601c-.586 0-1.033-.634-.496-.868a1.15 1.15 0 0 1 .468-.093c.214 0 .401.045.556.13.479.262.018.831-.528.831Zm6.242-1.173a.4.4 0 1 0-.8 0v1.424c0 .647-.376 1.141-1.016 1.155-.536 0-.863-.341-.863-.898v-1.681a.4.4 0 0 0-.8 0v1.904c0 .884.508 1.427 1.357 1.427.382-.004.708-.097.96-.294.113-.089.362-.013.362.131 0 .075.06.135.136.135h.264a.4.4 0 0 0 .4-.4v-2.903Zm1.928-1.946c-.264 0-.466.202-.466.487 0 .279.202.481.466.481a.461.461 0 0 0 .467-.481c0-.285-.202-.487-.467-.487Zm0 5.249c.22 0 .397-.177.397-.396v-2.911a.396.396 0 0 0-.793 0v2.911c0 .219.177.396.396.396Zm3.035-3.738c-.71 0-1.364.32-1.364 1.072-.007 1.337 1.941.912 1.941 1.671 0 .278-.264.397-.605.397a2.06 2.06 0 0 1-.905-.234c-.181-.094-.423-.047-.514.135-.063.124-.036.277.08.354.361.242.845.371 1.304.371.745 0 1.42-.341 1.42-1.1.007-1.343-1.963-.974-1.963-1.657 0-.264.23-.369.543-.369.223 0 .486.059.734.16.184.075.407.013.495-.165.074-.149.029-.332-.12-.404a2.477 2.477 0 0 0-1.046-.231Zm7.342.007c-.033 0-.065 0-.096.002-.554.022-2.043-.002-2.597-.002-.392 0-.727.091-.985.293-.113.089-.359.014-.359-.13a.135.135 0 0 0-.135-.135h-.261a.396.396 0 0 0-.397.396v2.911a.396.396 0 0 0 .793 0v-1.435c0-.647.39-1.134 1.03-1.155.543 0 .87.341.87.905v1.681a.4.4 0 1 0 .8 0v-1.431c0-.647.383-1.134 1.017-1.155.543 0 .877.341.877.905v1.681a.4.4 0 0 0 .8 0v-1.904c0-.884-.508-1.427-1.357-1.427Zm4.364 0c-1.149 0-1.935.759-1.935 1.88 0 1.113.786 1.879 1.935 1.879 1.141 0 1.927-.766 1.927-1.879 0-1.121-.786-1.88-1.927-1.88Zm0 .689c.66 0 1.127.487 1.127 1.198 0 .717-.466 1.204-1.127 1.204-.669 0-1.135-.487-1.135-1.204 0-.711.466-1.198 1.135-1.198Zm6.639-1.723a.4.4 0 0 0-.8 0v.154c0 .448-.868.873-1.316.873-1.044 0-1.76.759-1.76 1.873 0 1.127.71 1.9 1.774 1.9.393 0 .722-.104.975-.301.111-.086.327-.014.327.127 0 .077.062.139.139.139h.26a.4.4 0 0 0 .401-.4v-4.365Zm-1.935 4.132c-.675 0-1.134-.501-1.141-1.205.007-.71.473-1.218 1.141-1.218s1.135.501 1.135 1.218c0 .704-.467 1.205-1.135 1.205Zm7.656.144c-.063-.191-.277-.272-.472-.225a.858.858 0 0 1-.203.025c-.25 0-.397-.118-.397-.501v-1.229c0-.302.245-.546.546-.546h.247a.3.3 0 1 0 0-.599h-.285a.508.508 0 0 1-.508-.508v-.112a.397.397 0 0 0-.793 0v.359a.261.261 0 0 1-.261.261.261.261 0 0 0-.261.261v.077c0 .144.117.261.26.261.145 0 .262.117.262.261v1.66c0 .759.48 1.079 1.037 1.079.23 0 .456-.052.675-.149a.3.3 0 0 0 .153-.375Zm1.567-4.76c-.264 0-.466.202-.466.487 0 .279.202.481.466.481a.461.461 0 0 0 .466-.481c0-.285-.202-.487-.466-.487Zm0 5.249c.22 0 .397-.177.397-.396v-2.911a.396.396 0 0 0-.793 0v2.911c0 .219.177.396.396.396Zm4.091-3.731c-.405 0-.745.093-1.007.297-.114.089-.357.014-.357-.131a.138.138 0 0 0-.138-.138h-.262a.4.4 0 0 0-.4.4v2.903a.4.4 0 0 0 .8 0v-1.57c.055-.578.438-1.002 1.051-1.009.556 0 .89.341.89.898v1.681a.4.4 0 1 0 .801 0v-1.904c0-.884-.515-1.427-1.378-1.427Zm4.315 0c-1.1 0-1.865.766-1.865 1.887 0 1.113.765 1.872 1.865 1.872.582 0 1.05-.172 1.384-.481.118-.109.104-.293-.011-.407-.132-.133-.35-.12-.508-.019-.225.144-.506.218-.83.218-.641 0-1.1-.48-1.1-1.183 0-.704.459-1.184 1.1-1.184.293-.005.547.063.759.186.177.101.412.098.544-.057.111-.13.112-.325-.023-.431-.33-.26-.775-.401-1.315-.401Zm3.152-1.518c-.264 0-.466.202-.466.487 0 .279.202.481.466.481a.462.462 0 0 0 .467-.481c0-.285-.202-.487-.467-.487Zm0 5.249c.22 0 .397-.177.397-.396v-2.911a.396.396 0 1 0-.793 0v2.911c0 .219.177.396.396.396Zm5.457-4.765a.4.4 0 0 0-.801 0v.154c0 .448-.867.873-1.315.873-1.044 0-1.761.759-1.761 1.873 0 1.127.71 1.9 1.775 1.9.393 0 .721-.104.975-.301.111-.086.326-.014.326.127a.14.14 0 0 0 .14.139h.261a.4.4 0 0 0 .4-.4v-4.365Zm-1.935 4.132c-.675 0-1.134-.501-1.141-1.205.007-.71.473-1.218 1.141-1.218s1.134.501 1.134 1.218c0 .704-.466 1.205-1.134 1.205Zm6.862-2.67a.4.4 0 1 0-.8 0v1.424c0 .647-.376 1.141-1.016 1.155-.536 0-.863-.341-.863-.898v-1.681a.4.4 0 1 0-.801 0v1.904c0 .884.508 1.427 1.357 1.427.382-.004.709-.097.96-.294.114-.089.363-.013.363.131 0 .075.06.135.135.135h.265a.4.4 0 0 0 .4-.4v-2.903Zm3.696-.428c-.405 0-.745.093-1.007.297-.114.089-.358.014-.358-.131a.138.138 0 0 0-.138-.138h-.262a.4.4 0 0 0-.4.4v2.903a.4.4 0 1 0 .8 0v-1.57c.056-.578.439-1.002 1.051-1.009.557 0 .891.341.891.898v1.681a.4.4 0 0 0 .801 0v-1.904c0-.884-.515-1.427-1.378-1.427Zm4.809 3.242c-.063-.191-.277-.272-.472-.225a.866.866 0 0 1-.203.025c-.251 0-.397-.118-.397-.501v-1.229c0-.302.244-.546.546-.546h.247a.3.3 0 0 0 0-.599h-.285a.508.508 0 0 1-.508-.508v-.112a.397.397 0 0 0-.794 0v.359a.26.26 0 0 1-.261.261.261.261 0 0 0-.261.261v.077c0 .144.117.261.261.261a.26.26 0 0 1 .261.261v1.66c0 .759.481 1.079 1.037 1.079.23 0 .456-.052.676-.149a.3.3 0 0 0 .153-.375Zm6.675-2.814a.4.4 0 1 0-.8 0v1.424c0 .647-.376 1.141-1.016 1.155-.536 0-.863-.341-.863-.898v-1.681a.4.4 0 0 0-.801 0v1.904c0 .884.508 1.427 1.358 1.427.381-.004.708-.097.96-.294.113-.089.362-.013.362.131 0 .075.061.135.135.135h.265a.4.4 0 0 0 .4-.4v-2.903Zm3.543 2.814c-.063-.191-.277-.272-.472-.225a.868.868 0 0 1-.204.025c-.25 0-.396-.118-.396-.501v-1.229c0-.302.244-.546.546-.546h.247a.3.3 0 0 0 0-.599h-.285a.508.508 0 0 1-.508-.508v-.112a.397.397 0 0 0-.794 0v.359a.26.26 0 0 1-.261.261.261.261 0 0 0-.261.261v.077c0 .144.117.261.261.261a.26.26 0 0 1 .261.261v1.66c0 .759.481 1.079 1.037 1.079.23 0 .456-.052.676-.149.142-.063.201-.227.153-.375Zm3.747.489a.4.4 0 0 0 .4-.4v-4.365a.4.4 0 1 0-.8 0v4.365a.4.4 0 0 0 .4.4Zm4.186-.118c0 .065.053.118.119.118h.274a.393.393 0 0 0 .393-.393l-.006-2.036c-.007-.815-.543-1.302-1.496-1.302-.575 0-.931.107-1.323.313a.302.302 0 0 0-.113.422c.091.156.295.2.457.118.272-.137.542-.206.805-.206.584 0 .883.279.883.745a.111.111 0 0 1-.111.112h-1.009c-.891.007-1.399.438-1.399 1.114 0 .654.501 1.148 1.302 1.148.393 0 .726-.086.98-.261.092-.063.244-.003.244.108Zm-1.057-.48c-.446 0-.717-.216-.717-.55 0-.355.243-.495.765-.495h.661c.189 0 .341.153.341.342-.041.403-.48.703-1.05.703Zm4.85-3.133c-1.148 0-1.934.759-1.934 1.88 0 1.113.786 1.879 1.934 1.879 1.142 0 1.928-.766 1.928-1.879 0-1.121-.786-1.88-1.928-1.88Zm0 .689c.662 0 1.128.487 1.128 1.198 0 .717-.466 1.204-1.128 1.204-.668 0-1.134-.487-1.134-1.204 0-.711.466-1.198 1.134-1.198Zm3.912-.52a.14.14 0 0 0-.141-.141h-.26a.4.4 0 0 0-.4.4v2.903a.4.4 0 0 0 .801 0v-1.535c.05-.514.371-.9.888-1.005.21-.042.392-.205.392-.419v-.071c0-.166-.136-.305-.3-.276a1.333 1.333 0 0 0-.615.274c-.115.094-.365.018-.365-.13Zm3.813-.169c-1.099.007-1.872.766-1.872 1.887 0 1.113.752 1.872 1.893 1.872.525 0 .974-.154 1.319-.428.129-.102.126-.291.013-.411-.123-.131-.329-.129-.48-.033-.23.147-.501.225-.789.225-.822 0-.37-.926.452-.926.675 0 1.302-.547 1.073-1.182-.228-.635-.75-1.004-1.609-1.004Zm.036 1.601c-.586 0-1.034-.634-.497-.868.139-.061.296-.093.468-.093.214 0 .402.045.557.13.478.262.017.831-.528.831Zm4.405-1.601c-1.1.007-1.872.766-1.872 1.887 0 1.113.751 1.872 1.893 1.872.524 0 .974-.154 1.318-.428.129-.102.126-.291.013-.411-.122-.131-.328-.129-.48-.033-.23.147-.5.225-.789.225-.822 0-.37-.926.453-.926.674 0 1.301-.547 1.072-1.182-.228-.635-.75-1.004-1.608-1.004Zm.035 1.601c-.586 0-1.033-.634-.497-.868.139-.061.296-.093.469-.093.213 0 .401.045.556.13.478.262.017.831-.528.831Zm4.892 1.641c-.063-.191-.277-.272-.472-.225a.854.854 0 0 1-.203.025c-.251 0-.397-.118-.397-.501v-1.229c0-.302.245-.546.547-.546h.247a.3.3 0 0 0 0-.599h-.286a.509.509 0 0 1-.508-.508v-.112a.397.397 0 1 0-.793 0v.359a.261.261 0 0 1-.261.261.261.261 0 0 0-.261.261v.077c0 .144.117.261.261.261.144 0 .261.117.261.261v1.66c0 .759.48 1.079 1.037 1.079.23 0 .456-.052.675-.149.143-.063.202-.227.153-.375Zm6.841-4.276a.4.4 0 1 0-.8 0v.154c0 .448-.868.873-1.315.873-1.044 0-1.761.759-1.761 1.873 0 1.127.71 1.9 1.774 1.9.393 0 .722-.104.975-.301.112-.086.327-.014.327.127 0 .077.062.139.139.139h.261a.4.4 0 0 0 .4-.4v-4.365Zm-1.935 4.132c-.675 0-1.134-.501-1.141-1.205.007-.71.473-1.218 1.141-1.218.669 0 1.135.501 1.135 1.218 0 .704-.466 1.205-1.135 1.205Zm5.089-3.098c-1.148 0-1.934.759-1.934 1.88 0 1.113.786 1.879 1.934 1.879 1.142 0 1.928-.766 1.928-1.879 0-1.121-.786-1.88-1.928-1.88Zm0 .689c.661 0 1.128.487 1.128 1.198 0 .717-.467 1.204-1.128 1.204-.668 0-1.134-.487-1.134-1.204 0-.711.466-1.198 1.134-1.198Zm3.546 3.042a.4.4 0 0 0 .4-.4v-4.365a.4.4 0 1 0-.8 0v4.365a.4.4 0 0 0 .4.4Zm3.553-3.731c-1.148 0-1.935.759-1.935 1.88 0 1.113.787 1.879 1.935 1.879 1.141 0 1.928-.766 1.928-1.879 0-1.121-.787-1.88-1.928-1.88Zm0 .689c.661 0 1.127.487 1.127 1.198 0 .717-.466 1.204-1.127 1.204-.668 0-1.134-.487-1.134-1.204 0-.711.466-1.198 1.134-1.198Zm3.911-.52a.14.14 0 0 0-.141-.141h-.259a.4.4 0 0 0-.4.4v2.903a.4.4 0 1 0 .8 0v-1.535c.051-.514.372-.9.889-1.005.21-.042.392-.205.392-.419v-.071c0-.166-.136-.305-.3-.276a1.333 1.333 0 0 0-.615.274c-.115.094-.366.018-.366-.13Zm3.814-.169c-1.099.007-1.872.766-1.872 1.887 0 1.113.752 1.872 1.893 1.872.524 0 .974-.154 1.319-.428.128-.102.125-.291.013-.411-.123-.131-.329-.129-.48-.033-.23.147-.501.225-.789.225-.823 0-.37-.926.452-.926.675 0 1.301-.547 1.073-1.182-.229-.635-.751-1.004-1.609-1.004Zm.035 1.601c-.586 0-1.033-.634-.496-.868.138-.061.296-.093.468-.093.214 0 .402.045.556.13.479.262.018.831-.528.831Zm-116.3 6.753-.096.002c-.553.022-2.043-.002-2.597-.002-.392 0-.726.091-.984.294-.113.088-.359.013-.359-.13a.136.136 0 0 0-.136-.136h-.26a.397.397 0 0 0-.397.397v2.91a.397.397 0 0 0 .793 0v-1.434c0-.648.39-1.135 1.03-1.156.543 0 .87.341.87.905v1.682a.4.4 0 1 0 .8 0v-1.431c0-.648.383-1.135 1.016-1.156.543 0 .877.341.877.905v1.682a.4.4 0 0 0 .8 0v-1.905c0-.884-.507-1.427-1.356-1.427Zm4.996 3.614c0 .065.053.118.118.118h.275a.393.393 0 0 0 .392-.394l-.005-2.036c-.007-.815-.543-1.302-1.497-1.302-.574 0-.93.107-1.322.313a.303.303 0 0 0-.114.422c.092.156.296.2.457.118.272-.137.543-.205.805-.205.585 0 .884.278.884.745 0 .061-.05.111-.111.111h-1.01c-.89.007-1.398.439-1.398 1.114 0 .654.5 1.149 1.301 1.149.393 0 .727-.087.98-.262.092-.063.245-.003.245.109Zm-1.058-.481c-.445 0-.717-.216-.717-.55 0-.355.244-.494.766-.494h.661a.34.34 0 0 1 .341.341c-.042.404-.48.703-1.05.703Zm6.606-2.708a.397.397 0 0 0-.396-.397h-.262a.135.135 0 0 0-.135.135c0 .135-.203.205-.31.122-.245-.188-.561-.29-.943-.285-.981.007-1.642.717-1.642 1.762 0 1.065.668 1.789 1.67 1.789.369 0 .677-.098.915-.281.106-.082.31-.013.31.121 0 .64-.46 1.051-1.162 1.051-.322 0-.598-.074-.856-.21-.172-.09-.393-.048-.491.119a.304.304 0 0 0 .106.425 2.64 2.64 0 0 0 1.275.327c1.163 0 1.921-.668 1.921-1.733v-2.945Zm-1.858 2.499c-.64 0-1.072-.473-1.079-1.142.007-.661.446-1.134 1.08-1.134.625 0 1.064.466 1.064 1.134 0 .669-.439 1.142-1.065 1.142Zm5.484-2.924c-.404 0-.745.093-1.007.297-.114.09-.357.014-.357-.131a.138.138 0 0 0-.138-.138h-.262a.4.4 0 0 0-.4.4v2.904a.4.4 0 0 0 .8 0v-1.57c.056-.578.438-1.003 1.051-1.01.557 0 .89.341.89.898v1.682a.4.4 0 0 0 .8 0v-1.905c.001-.884-.514-1.427-1.377-1.427Zm5.018 3.614c0 .065.053.118.118.118h.275a.393.393 0 0 0 .392-.394l-.005-2.036c-.007-.815-.543-1.302-1.497-1.302-.574 0-.93.107-1.322.313a.302.302 0 0 0-.114.422c.092.156.296.2.457.118.272-.137.543-.205.805-.205.585 0 .884.278.884.745 0 .061-.05.111-.111.111h-1.01c-.89.007-1.398.439-1.398 1.114 0 .654.5 1.149 1.301 1.149.393 0 .726-.087.98-.262.092-.063.245-.003.245.109Zm-1.058-.481c-.445 0-.717-.216-.717-.55 0-.355.244-.494.766-.494h.66a.34.34 0 0 1 .342.341c-.042.404-.48.703-1.05.703Zm7.628.481c0 .065.053.118.118.118h.274a.393.393 0 0 0 .393-.394l-.006-2.036c-.007-.815-.543-1.302-1.496-1.302-.575 0-.93.107-1.323.313a.302.302 0 0 0-.113.422c.092.156.295.2.457.118.272-.137.542-.205.805-.205.585 0 .884.278.884.745 0 .061-.05.111-.112.111h-1.009c-.89.007-1.398.439-1.398 1.114 0 .654.5 1.149 1.3 1.149.394 0 .727-.087.981-.262.092-.063.245-.003.245.109Zm-1.058-.481c-.445 0-.717-.216-.717-.55 0-.355.244-.494.766-.494h.661a.34.34 0 0 1 .341.341c-.042.404-.48.703-1.051.703Zm3.699.599a.4.4 0 0 0 .4-.4v-4.366a.4.4 0 1 0-.8 0v4.366a.4.4 0 0 0 .4.4Zm2.363-5.25c-.265 0-.467.202-.467.488 0 .278.202.48.467.48a.461.461 0 0 0 .466-.48c0-.286-.202-.488-.466-.488Zm0 5.25a.396.396 0 0 0 .396-.397v-2.91a.397.397 0 0 0-.793 0v2.91c0 .219.178.397.397.397Zm5.456-3.304a.4.4 0 0 0-.4-.4h-.257a.143.143 0 0 0-.143.143c0 .144-.217.218-.331.129-.256-.199-.587-.307-.985-.307-1.044 0-1.76.759-1.76 1.873 0 1.128.709 1.901 1.774 1.901.437 0 1.302.428 1.302.865v.05a.4.4 0 1 0 .8 0v-4.254Zm-1.935 2.67c-.675 0-1.134-.501-1.141-1.204.007-.71.473-1.219 1.141-1.219s1.135.502 1.135 1.219c0 .703-.467 1.204-1.135 1.204Zm6.862-2.67a.4.4 0 1 0-.8 0v1.424c0 .647-.376 1.142-1.016 1.156-.536 0-.863-.341-.863-.898v-1.682a.4.4 0 1 0-.8 0v1.904c0 .885.508 1.428 1.357 1.428.381-.005.708-.098.96-.295.113-.089.362-.013.362.131 0 .075.061.136.135.136h.265a.4.4 0 0 0 .4-.4v-2.904Zm3.752 3.186c0 .065.052.118.118.118h.274a.394.394 0 0 0 .393-.394l-.006-2.036c-.007-.815-.543-1.302-1.496-1.302-.575 0-.931.107-1.323.313a.302.302 0 0 0-.113.422c.091.156.295.2.457.118.272-.137.542-.205.805-.205.584 0 .884.278.884.745 0 .061-.05.111-.112.111h-1.009c-.891.007-1.399.439-1.399 1.114 0 .654.501 1.149 1.302 1.149.393 0 .726-.087.98-.262.092-.063.245-.003.245.109Zm-1.058-.481c-.446 0-.717-.216-.717-.55 0-.355.243-.494.765-.494h.661c.189 0 .342.152.342.341-.042.404-.481.703-1.051.703Zm8.095-3.133a2.95 2.95 0 0 0-.096.002c-.554.022-2.043-.002-2.597-.002-.392 0-.727.091-.985.294-.113.088-.359.013-.359-.13a.135.135 0 0 0-.135-.136h-.261a.397.397 0 0 0-.397.397v2.91a.396.396 0 1 0 .793 0v-1.434c0-.648.39-1.135 1.03-1.156.543 0 .87.341.87.905v1.682a.4.4 0 1 0 .801 0v-1.431c0-.648.383-1.135 1.016-1.156.543 0 .877.341.877.905v1.682a.4.4 0 1 0 .8 0v-1.905c0-.884-.508-1.427-1.357-1.427Zm6.445 0c-1.1.007-1.873.766-1.873 1.887 0 1.114.752 1.873 1.893 1.873.525 0 .975-.155 1.319-.428.129-.103.126-.292.013-.411-.123-.131-.329-.129-.48-.033-.23.146-.501.224-.789.224-.822 0-.37-.926.452-.926.675 0 1.302-.547 1.073-1.182-.228-.635-.75-1.004-1.608-1.004Zm.035 1.601c-.586 0-1.034-.633-.497-.868.139-.06.296-.092.468-.092.214 0 .402.045.557.13.478.262.017.83-.528.83Zm3.68-1.432a.141.141 0 0 0-.141-.141h-.26a.4.4 0 0 0-.4.4v2.904a.4.4 0 0 0 .801 0v-1.536c.05-.514.371-.899.888-1.004.21-.043.392-.206.392-.42v-.07c0-.167-.136-.305-.3-.277a1.324 1.324 0 0 0-.615.275c-.115.094-.365.018-.365-.131Zm4.365 3.445c0 .065.052.118.118.118h.274a.394.394 0 0 0 .393-.394l-.006-2.036c-.007-.815-.543-1.302-1.496-1.302-.575 0-.931.107-1.323.313a.302.302 0 0 0-.113.422c.091.156.295.2.457.118.272-.137.542-.205.805-.205.584 0 .884.278.884.745 0 .061-.05.111-.112.111h-1.009c-.891.007-1.399.439-1.399 1.114 0 .654.501 1.149 1.302 1.149.393 0 .726-.087.98-.262.092-.063.245-.003.245.109Zm-1.058-.481c-.446 0-.717-.216-.717-.55 0-.355.243-.494.765-.494h.661c.189 0 .342.152.342.341-.042.404-.481.703-1.051.703Zm5.275.109c-.062-.19-.277-.272-.472-.225a.854.854 0 0 1-.203.025c-.251 0-.397-.118-.397-.501v-1.229c0-.301.245-.546.547-.546h.247a.3.3 0 0 0 0-.599h-.286a.508.508 0 0 1-.508-.508v-.112a.396.396 0 1 0-.793 0v.359a.261.261 0 0 1-.261.261.261.261 0 0 0-.261.261v.077c0 .144.117.261.261.261.144 0 .261.117.261.261v1.66c0 .759.48 1.08 1.037 1.08.23 0 .456-.053.675-.15.143-.062.202-.227.153-.375Zm4.575.49c.25 0 .474-.154.563-.388l1.079-2.814a.37.37 0 0 0-.345-.502.37.37 0 0 0-.349.248l-.116.334c-.27.774-1.364.776-1.637.003l-.116-.328a.386.386 0 1 0-.723.268l1.082 2.793c.09.233.313.386.562.386Zm4.187-3.732c-1.148 0-1.935.759-1.935 1.88 0 1.114.787 1.88 1.935 1.88 1.141 0 1.928-.766 1.928-1.88 0-1.121-.787-1.88-1.928-1.88Zm0 .689c.661 0 1.128.488 1.128 1.198 0 .717-.467 1.204-1.128 1.204-.668 0-1.134-.487-1.134-1.204 0-.71.466-1.198 1.134-1.198Zm3.546 3.043a.4.4 0 0 0 .4-.4v-4.366a.4.4 0 1 0-.8 0v4.366a.4.4 0 0 0 .4.4Zm5.327-3.304a.4.4 0 1 0-.8 0v1.424c0 .647-.376 1.142-1.016 1.156-.536 0-.863-.341-.863-.898v-1.682a.4.4 0 1 0-.8 0v1.904c0 .885.508 1.428 1.357 1.428.382-.005.708-.098.96-.295.113-.089.362-.013.362.131 0 .075.061.136.136.136h.264a.4.4 0 0 0 .4-.4v-2.904Zm3.543 2.814c-.063-.19-.277-.272-.472-.225a.854.854 0 0 1-.203.025c-.251 0-.397-.118-.397-.501v-1.229c0-.301.245-.546.546-.546h.247a.3.3 0 1 0 0-.599h-.285a.508.508 0 0 1-.508-.508v-.112a.396.396 0 1 0-.793 0v.359a.261.261 0 0 1-.261.261.261.261 0 0 0-.261.261v.077c0 .144.117.261.261.261.144 0 .261.117.261.261v1.66c0 .759.48 1.08 1.037 1.08.23 0 .456-.053.675-.15.143-.062.202-.227.153-.375Zm3.299-3.242c-.384 0-.709.104-.964.301-.114.088-.331.014-.331-.13a.143.143 0 0 0-.143-.143h-.257a.4.4 0 0 0-.4.4v4.254a.4.4 0 1 0 .8 0v-.052c0-.445.864-.87 1.309-.87 1.057 0 1.753-.759 1.753-1.866 0-1.128-.716-1.894-1.767-1.894Zm-.167 3.077c-.661 0-1.128-.494-1.128-1.211 0-.696.467-1.198 1.128-1.198.661 0 1.127.509 1.127 1.198 0 .71-.466 1.211-1.127 1.211Zm5.338.537c0 .065.053.118.118.118h.274a.393.393 0 0 0 .393-.394l-.006-2.036c-.007-.815-.543-1.302-1.496-1.302-.575 0-.931.107-1.323.313a.303.303 0 0 0-.113.422c.091.156.295.2.457.118.272-.137.542-.205.805-.205.584 0 .884.278.884.745 0 .061-.05.111-.112.111h-1.009c-.891.007-1.399.439-1.399 1.114 0 .654.501 1.149 1.302 1.149.393 0 .726-.087.98-.262.092-.063.245-.003.245.109Zm-1.058-.481c-.446 0-.717-.216-.717-.55 0-.355.244-.494.766-.494h.661a.34.34 0 0 1 .341.341c-.042.404-.481.703-1.051.703Zm5.275.109c-.062-.19-.277-.272-.472-.225a.854.854 0 0 1-.203.025c-.25 0-.397-.118-.397-.501v-1.229c0-.301.245-.546.547-.546h.247a.3.3 0 0 0 0-.599h-.285a.508.508 0 0 1-.509-.508v-.112a.396.396 0 0 0-.793 0v.359a.261.261 0 0 1-.261.261.261.261 0 0 0-.261.261v.077c0 .144.117.261.261.261.144 0 .261.117.261.261v1.66c0 .759.48 1.08 1.037 1.08.23 0 .456-.053.675-.15.143-.062.202-.227.153-.375Zm1.338-.367c-.251 0-.439.188-.439.453 0 .271.188.466.439.466.25 0 .438-.195.438-.466 0-.265-.188-.453-.438-.453Z" fill="#444445"/><path d="M299.351 34.974a.574.574 0 0 0 .574-.575v-5.673a.575.575 0 1 0-1.149 0v.907c0 .818-.664 1.481-1.482 1.481h-.652a1.481 1.481 0 0 1-1.481-1.481v-.907a.575.575 0 0 0-1.15 0V34.4a.575.575 0 1 0 1.15 0v-.838c0-.78.633-1.414 1.413-1.414h.788c.781 0 1.414.633 1.414 1.414v.838c0 .318.257.575.575.575Zm5.417-6.852c-2.036 0-3.615 1.482-3.615 3.44 0 1.95 1.579 3.46 3.615 3.46 2.036 0 3.615-1.51 3.615-3.46 0-1.949-1.579-3.44-3.615-3.44Zm.01 1.033a2.404 2.404 0 0 1 2.426 2.408 2.421 2.421 0 0 1-2.426 2.427c-1.335 0-2.456-1.073-2.456-2.427 0-1.355 1.111-2.408 2.456-2.408Zm11.511 5.819a.531.531 0 0 0 .531-.531v-5.456a.836.836 0 0 0-1.584-.37l-.297.6c-.703 1.422-2.728 1.424-3.433.004l-.299-.602a.842.842 0 0 0-1.597.375v5.44a.54.54 0 0 0 1.082 0v-.42c0-1.018 1.375-1.338 1.823-.424l.165.336a.603.603 0 0 0 1.081 0l.165-.338c.45-.916 1.829-.597 1.831.423v.432a.532.532 0 0 0 .532.531Zm6.689-5.79a.517.517 0 0 0 0-1.033h-1.919a2.436 2.436 0 0 0-2.436 2.436v1.893a2.494 2.494 0 0 0 2.494 2.494h1.978a.517.517 0 0 0 0-1.033h-2.382a.94.94 0 0 1 0-1.881h1.875a.516.516 0 1 0 0-1.033h-1.894a.92.92 0 1 1 0-1.842h2.284Zm37.238 5.79a.575.575 0 0 0 .575-.575v-5.673a.575.575 0 1 0-1.15 0V34.4c0 .318.257.575.575.575Zm4.609-6.871c-1.481 0-2.485.73-2.485 1.9 0 2.427 3.683 1.58 3.683 3.1 0 .526-.477.828-1.276.828-.546 0-1.174-.196-1.748-.563-.3-.19-.72-.115-.878.203a.49.49 0 0 0 .13.616 4.203 4.203 0 0 0 2.476.826c1.501 0 2.572-.75 2.572-1.969.01-2.456-3.673-1.657-3.673-3.148 0-.458.439-.712 1.111-.712.386 0 .897.104 1.439.343.308.136.683.026.827-.279.12-.255.036-.563-.217-.687a4.509 4.509 0 0 0-1.961-.458Zm6.06 0c-1.481 0-2.485.73-2.485 1.9 0 2.427 3.683 1.58 3.683 3.1 0 .526-.477.828-1.276.828-.546 0-1.173-.196-1.748-.563-.299-.19-.719-.115-.878.203a.489.489 0 0 0 .131.616 4.2 4.2 0 0 0 2.475.826c1.501 0 2.573-.75 2.573-1.969.01-2.456-3.673-1.657-3.673-3.148 0-.458.438-.712 1.11-.712.386 0 .897.104 1.44.343.308.136.683.026.826-.279.12-.255.036-.563-.217-.687a4.505 4.505 0 0 0-1.961-.458Zm9.617.623a.575.575 0 1 0-1.15 0v3.421c0 1.16-.692 1.843-1.803 1.843-1.12 0-1.831-.692-1.831-1.843v-3.42a.575.575 0 1 0-1.15 0v3.42c0 1.784 1.13 2.876 2.972 2.876 1.841 0 2.962-1.092 2.962-2.876v-3.42Zm6.001.458a.517.517 0 1 0 0-1.033h-1.919a2.436 2.436 0 0 0-2.436 2.436v1.893a2.494 2.494 0 0 0 2.494 2.494h1.978a.517.517 0 0 0 0-1.033h-2.382a.94.94 0 0 1 0-1.881h1.876a.516.516 0 0 0 0-1.033h-1.895a.92.92 0 1 1 0-1.842h2.284Zm4.278-1.081c-1.481 0-2.485.73-2.485 1.9 0 2.427 3.683 1.58 3.683 3.1 0 .526-.477.828-1.276.828-.546 0-1.173-.196-1.748-.563-.299-.19-.719-.115-.878.203a.49.49 0 0 0 .13.616 4.205 4.205 0 0 0 2.476.826c1.501 0 2.573-.75 2.573-1.969.009-2.456-3.674-1.657-3.674-3.148 0-.458.439-.712 1.111-.712.386 0 .897.104 1.439.343.308.136.683.026.827-.279.12-.255.036-.563-.217-.687a4.509 4.509 0 0 0-1.961-.458Zm42.446 6.871a.575.575 0 0 0 .575-.575v-5.673a.575.575 0 1 0-1.15 0V34.4c0 .318.257.575.575.575Zm7.53 0a.752.752 0 0 0 .752-.752v-5.506a.565.565 0 1 0-1.13 0v.656c0 1.175-1.498 1.672-2.2.73l-1.228-1.648a.752.752 0 0 0-1.356.45v5.495a.575.575 0 1 0 1.149 0v-.641c0-1.172 1.494-1.666 2.193-.725l1.216 1.637a.753.753 0 0 0 .604.304Zm6.612-5.79a.517.517 0 0 0 0-1.033h-1.779a2.28 2.28 0 0 0-2.279 2.28v3.968a.575.575 0 1 0 1.15 0v-.824c0-.772.626-1.398 1.399-1.398h1.188a.511.511 0 0 0 0-1.023h-1.603a.985.985 0 0 1 0-1.969h1.924Zm4.594-1.062c-2.036 0-3.614 1.482-3.614 3.44 0 1.95 1.578 3.46 3.614 3.46 2.037 0 3.615-1.51 3.615-3.46 0-1.949-1.578-3.44-3.615-3.44Zm.01 1.033a2.404 2.404 0 0 1 2.426 2.408 2.42 2.42 0 0 1-2.426 2.427c-1.335 0-2.455-1.073-2.455-2.427 0-1.355 1.111-2.408 2.455-2.408Z" fill="#5E489A"/><path d="M492.021 28.122c-2.017 0-3.585 1.491-3.585 3.43 0 1.96 1.549 3.47 3.546 3.47.804 0 1.621-.304 2.271-.8.218-.166.226-.48.043-.685-.194-.216-.528-.224-.769-.063-.449.3-.973.477-1.486.477-1.364 0-2.436-1.063-2.436-2.408s1.072-2.398 2.436-2.398c.5 0 1.011.174 1.444.473.261.181.634.172.834-.076.167-.209.151-.513-.063-.673a3.791 3.791 0 0 0-2.235-.747Zm6.674 0c-2.036 0-3.615 1.482-3.615 3.44 0 1.95 1.579 3.46 3.615 3.46 2.037 0 3.615-1.51 3.615-3.46 0-1.949-1.578-3.44-3.615-3.44Zm.01 1.033a2.404 2.404 0 0 1 2.426 2.408 2.42 2.42 0 0 1-2.426 2.427c-1.335 0-2.455-1.073-2.455-2.427 0-1.355 1.11-2.408 2.455-2.408Zm9.995 5.819a.752.752 0 0 0 .752-.752v-5.506a.565.565 0 1 0-1.13 0v.656c0 1.175-1.498 1.672-2.2.73l-1.228-1.648a.752.752 0 0 0-1.356.45v5.495a.574.574 0 1 0 1.149 0v-.641c0-1.172 1.494-1.666 2.193-.725l1.216 1.637a.753.753 0 0 0 .604.304Zm6.695-5.79a.517.517 0 1 0 0-1.033h-4.433a.516.516 0 0 0 0 1.033h.56c.595 0 1.077.482 1.077 1.077V34.4a.575.575 0 0 0 1.15 0v-4.133c0-.597.484-1.082 1.081-1.082h.565Zm4.396 4.25c.507 0 .965.303 1.163.77l.182.428a.56.56 0 1 0 1.029-.443l-2.402-5.497a.902.902 0 0 0-1.653-.003l-2.435 5.52a.545.545 0 1 0 1.001.433l.186-.438c.198-.467.656-.77 1.163-.77h1.766Zm-.104-2.207a.852.852 0 1 1-1.568 0 .852.852 0 0 1 1.568 0Zm6.572-3.105c-2.017 0-3.585 1.491-3.585 3.43 0 1.96 1.549 3.47 3.546 3.47.804 0 1.621-.304 2.271-.8.218-.166.226-.48.043-.685-.194-.216-.528-.224-.769-.063-.448.3-.973.477-1.486.477-1.364 0-2.436-1.063-2.436-2.408s1.072-2.398 2.436-2.398c.5 0 1.011.174 1.444.473.262.181.635.172.834-.076.167-.209.151-.513-.063-.673a3.791 3.791 0 0 0-2.235-.747Zm7.912 1.062a.516.516 0 0 0 0-1.033h-4.433a.516.516 0 1 0 0 1.033h.56c.594 0 1.076.482 1.076 1.077V34.4a.575.575 0 1 0 1.15 0v-4.133c0-.597.484-1.082 1.082-1.082h.565Z" fill="#FEFEFE"/></g><rect x=".75" y=".75" width="568.5" height="363.5" rx="4.25" stroke="#000" stroke-width="1.5"/><defs><clipPath id="Frame 43__a"><rect width="570" height="365" rx="5" fill="#fff"/></clipPath></defs></svg>