<svg width="70" height="50" fill="none" xmlns="http://www.w3.org/2000/svg"><path d="M39.772 12.345A6.74 6.74 0 0 0 35 .845a6.732 6.732 0 0 0-5.628 3.036c-.32.32-27.153 33.392-27.403 33.772a6.74 6.74 0 0 0 4.772 11.5 6.73 6.73 0 0 0 5.628-3.035c.32-.32 27.152-33.393 27.403-33.773ZM55.297 28.04a6.74 6.74 0 0 0-4.767-11.506 6.732 6.732 0 0 0-5.63 3.038c-.322.323-14.415 17.695-14.667 18.077A6.74 6.74 0 0 0 35 49.155a6.731 6.731 0 0 0 5.629-3.038c.323-.323 14.416-17.695 14.668-18.078ZM70 7.585a6.74 6.74 0 1 1-13.48 0 6.74 6.74 0 0 1 13.48 0Zm-56.52 0a6.74 6.74 0 1 1-13.48 0 6.74 6.74 0 0 1 13.48 0Z" fill="#fff"/></svg>