<svg width="176" height="175" fill="none" xmlns="http://www.w3.org/2000/svg"><circle cx="88" cy="87.5" r="87" stroke="#000"/><mask id="Group 15__a" style="mask-type:alpha" maskUnits="userSpaceOnUse" x="0" y="0" width="176" height="175"><circle cx="88" cy="87.5" r="87.5" fill="#D9D9D9"/></mask><g mask="url(#Group 15__a)"><path d="M48.85 97.697c2.819 4.773 6.752 8.778 10.036 13.244a58.19 58.19 0 0 1 10.61 25.675c.95 6.296 1.348 13.656 6.55 17.327 2.625 1.853 5.97 2.308 9.18 2.492 3.536.204 7.446.014 10.055-2.381 3.358-3.081 3.132-8.301 3.411-12.849.707-11.473 6.153-22.02 10.105-32.816a130.53 130.53 0 0 0 7.935-44.506c.012-6.122-.623-12.777-4.777-17.276-3.469-3.757-8.724-5.246-13.77-6.083-14.151-2.347-33.889-.19-40.964 14.153-5.795 11.753-15.394 31.123-8.37 43.02Z" fill="#FFE7FB"/><path d="M41.085 185.001c3.493-12.137 12.77-23.475 25.227-25.554 2.801-.467 5.772-.438 8.365.721 1.747.781 3.233 2.032 4.836 3.077a23.275 23.275 0 0 0 13.261 3.736c6.377-.177 12.649-2.985 18.955-2.007 8.144 1.264 14.028 8.474 17.776 15.814 6.692 13.113 9.142 28.349 6.898 42.899-.261 1.671-70.478-.336-77.062-.375-8.521-.05-16.078.691-19.477-8.3-3.244-8.585-1.207-21.574 1.22-30.011Z" fill="#C3C62B"/><path d="M122.859 83.924a33.216 33.216 0 0 0-3.02 19.007c4.284 1.312 8.738-1.274 12.245-4.063 2.299-1.83 4.544-3.872 5.826-6.516 1.285-2.644 1.42-6.025-.351-8.37-1.628-2.155-4.534-3.025-7.232-2.87-2.696.155-5.255 1.183-7.759 2.196" fill="#FFE7FB"/><path d="M88.99 102.752c.34.08-.83 4.43-5.742 4.348-4.913-.081-8.516 1.883-8.434 10.482l-2.154-1.312s-4.538-18.439 16.33-13.518Z" fill="#000"/><path d="M89.1 102.752c-.34.08.83 4.43 5.743 4.348 4.913-.081 8.516 1.883 8.434 10.482l2.155-1.312s4.537-18.439-16.331-13.518Z" fill="#000"/><path d="M55.068 66.774s-.193 12.2 2.282 26.075c2.228 12.492 6.61 26.333 15.234 33.832 3.996 3.47 8.892 5.582 14.902 5.591 4.778 0 8.902-.92 12.46-2.559a23.36 23.36 0 0 0 2.313-1.212 9.86 9.86 0 0 0 .729-.45c.492-.299.964-.621 1.424-.963.193-.139.375-.278.568-.419.268-.213.536-.416.793-.641.428-.354.846-.719 1.253-1.104.45-.419.9-.857 1.329-1.318a36.1 36.1 0 0 0 1.018-1.135c.032-.032.064-.075.096-.108.3-.353.589-.718.868-1.081.043-.043.085-.097.118-.14 5.827-7.584 8.763-17.955 10.177-27.619.011-.03.011-.043.011-.043 2.067-14.13.91-26.706.91-26.706" stroke="#000" stroke-miterlimit="10"/><path d="m76.108 129.08-.01.14-1.157 12.191-.965 10.187-15.126 9.483-5.818 3.653c-.632.396-1.253.803-1.864 1.232a49.63 49.63 0 0 0-20.28 30.295l-5.388 24.78m74.445-91.328.322 3.396 1.757 18.489 16.937 10.628 4.007 2.508a45.18 45.18 0 0 1 3.674 2.549 49.572 49.572 0 0 1 18.469 28.978l5.389 24.78M56.096 85.781s-7.534-10.6-11.949-6.11c-4.414 4.49 2.54 27.761 15.523 25.777m61.901-19.969s7.175-10.846 11.737-6.507c4.563 4.338-1.606 27.83-14.649 26.283" stroke="#000" stroke-miterlimit="10"/><path d="M48.943 89.094s6.071.36 8.403 5.317" stroke="#000" stroke-miterlimit="10"/><path d="M51.906 94.108s.306-2.064 4.181-1.608m72.884-3.947s-6.056.563-8.22 5.595" stroke="#000" stroke-miterlimit="10"/><path d="M126.178 93.663s-.374-2.053-4.234-1.466" stroke="#000" stroke-miterlimit="10"/><path d="M120.751 87.404s-3.767-1.638-3.767-5.569c0-3.93 1.965-10.972-.655-15.067-2.619-4.093-6.387-7.86-6.387-7.86s-22.763-5.567-48.638 3.111c0 0-3.806 3.488-2.785 10.257 2.457 16.277-2.177 15.19-2.177 15.19s-7.4-10.708-5.096-21.27c0 0-13.885-13.238-3.289-33.9 11.714-22.846 52.102-21.15 65.86-6.012 11.045 12.154 6.934 20.178 6.934 20.178s15.724 14.084 0 40.942Z" fill="#000"/><path d="M67.616 56.123c-2.069-2.51-3.651-5.41-4.884-8.438a32.42 32.42 0 0 1-2.247-9.555c-.18-1.64-.06-3.29-.008-4.934.28-1.623.382-3.28.932-4.84.25-.783.404-1.592.73-2.346l.957-2.26c.295-.764.75-1.448 1.163-2.15a89.72 89.72 0 0 1 1.269-2.08c-1.37 2.942-2.73 5.875-3.32 9.035-.42 1.544-.507 3.146-.72 4.721-.016 1.593-.129 3.185.064 4.772.233 3.175.925 6.315 1.948 9.351.529 1.513 1.118 3.01 1.822 4.458.651 1.476 1.445 2.883 2.294 4.266Zm7.366-40.232c-1.118 1.833-1.825 3.845-2.433 5.858-.578 2.028-.965 4.103-1.214 6.196l-.174 1.571-.093 1.581c-.106 1.055-.051 2.114-.098 3.175-.008 1.06.05 2.122.052 3.189.039 1.066.133 2.13.148 3.209-.256-1.043-.453-2.1-.67-3.157-.13-1.066-.3-2.135-.366-3.212-.136-2.154-.13-4.328.137-6.484.277-2.15.726-4.29 1.486-6.328.759-2.027 1.767-4.005 3.225-5.598Zm-1.356 12.39c-.13-1.16-.085-2.323.038-3.475.117-1.154.349-2.296.67-3.418.338-1.116.747-2.224 1.36-3.238.595-1.01 1.357-1.976 2.358-2.589-.692.94-1.177 1.937-1.61 2.962-.428 1.025-.772 2.088-1.08 3.165-.648 2.15-1.114 4.356-1.736 6.593Zm13.932-.001c-.085 2.327-.237 4.626-.202 6.924.038 2.295.153 4.583.455 6.846a42.639 42.639 0 0 0 1.474 6.67c.379 1.073.739 2.162 1.257 3.184.402 1.088 1.062 2.03 1.578 3.08A22.04 22.04 0 0 1 88.51 49c-.869-2.186-1.425-4.486-1.762-6.808-.282-2.33-.37-4.68-.212-7.01.07-1.165.2-2.326.36-3.478.188-1.15.412-2.29.662-3.423Z" fill="#fff"/><path d="M82.846 57.554s-9.096 2.91-6.026 9.214c0 0-6.864-10.609 6.026-9.214ZM64.251 75.755c.55-.707 1.164-1.197 1.786-1.672l1.866.075c1.242.073 2.481.214 3.717.425a26.7 26.7 0 0 1 3.682.91c.604.209 1.21.42 1.8.69.406.683.743 1.435.952 2.26-.85.294-1.534.434-2.24.686-.486-.226-1.003-.405-1.52-.584a23.334 23.334 0 0 0-3.225-.795 30.574 30.574 0 0 0-3.352-.383c-.565-.024-1.13-.068-1.692-.038-.565-.483-1.14-.944-1.774-1.574Zm8.409 9.243c0 1.73-.879 3.131-1.965 3.131-1.085 0-1.965-1.402-1.965-3.131 0-1.73.88-3.133 1.965-3.133 1.086 0 1.966 1.403 1.966 3.133Zm38.458-10.041c-.623.633-1.166 1.116-1.693 1.619-.546-.007-1.092.065-1.637.123-1.09.133-2.17.356-3.221.657a18.09 18.09 0 0 0-3.052 1.147 15.27 15.27 0 0 0-1.431.76c-.725-.16-1.427-.215-2.301-.417.116-.84.351-1.619.66-2.346.552-.324 1.11-.634 1.69-.898a21.2 21.2 0 0 1 3.557-1.338 24.06 24.06 0 0 1 3.702-.754c.625-.083 1.254-.116 1.885-.177.651.451 1.288.92 1.841 1.624Zm-8.107 10.041c0 1.73.88 3.131 1.965 3.131 1.086 0 1.966-1.402 1.966-3.131 0-1.73-.88-3.133-1.966-3.133-1.085 0-1.965 1.403-1.965 3.133Z" fill="#000"/><path d="M85.327 83.59c.123.491.369 7.92-3.192 16.212 0 0 3.753 2.505 8.298-.278m-9.701 10.19s8.267 1.78 17.052.478m-12.354 3.28s4.67.778 7.122-.532" stroke="#000" stroke-miterlimit="10"/><path d="M120.632 93.523c-1.414 9.665-4.349 20.035-10.177 27.62-2.796 3.621-6.246 6.61-10.51 8.57-3.556 1.639-7.68 2.56-12.459 2.56-6.01-.01-10.906-2.122-14.902-5.592-8.624-7.499-13.005-21.34-15.234-33.831 0 0 5.71 13.637 9.77 18.297 4.05 4.671 8.057 8.27 22.327 8.517 14.27-.247 18.287-3.846 22.336-8.517 3.921-4.51 8.56-16.863 8.849-17.624Z" fill="#000"/><path d="m73.974 151.599 16.459 17.524 11.594-17.524" stroke="#000" stroke-miterlimit="10"/><path d="m67.74 155.51 7.647 15.741 10.502-6.967m8.911-1.762 8.919 8.729 7.626-13.808m-20.912 11.68H94.8s.894 8.024-3.528 9.498l-.839 42.415" stroke="#000" stroke-miterlimit="10"/><path d="M62.438 221.042h-8.516l-2.754-55.076c.61-.429 1.232-.836 1.864-1.232l5.818-3.653 3.588 59.961Zm64.204-53.759-2.679 53.758h-8.516l3.513-58.814 4.007 2.507a45.371 45.371 0 0 1 3.675 2.549Zm-26.375-34.174a2823.314 2823.314 0 0 1-25.326 8.302l1.157-12.191c3.268 1.939 7.039 3.042 11.388 3.052 4.778 0 8.903-.92 12.46-2.559l.321 3.396Z" fill="#000"/></g></svg>