<svg width="176" height="175" fill="none" xmlns="http://www.w3.org/2000/svg"><mask id="Mask group__a" style="mask-type:alpha" maskUnits="userSpaceOnUse" x="0" y="0" width="176" height="175"><circle cx="88" cy="87.5" r="87.5" fill="#D9D9D9"/></mask><g mask="url(#Mask group__a)"><path d="M73.3 121.179c.69 3.586 1.469 7.348 3.853 10.113 3.724 4.32 10.092 4.9 15.788 5.169 3.227.152 6.987.072 8.962-2.483 1.459-1.885 1.405-4.478 1.645-6.85.765-7.552 5.048-14.203 8.172-21.12 8.006-17.725 8.438-38.724 1.171-56.764-1.012-2.51-2.219-5.04-4.246-6.833-2.28-2.016-5.345-2.882-8.343-3.404-13.61-2.373-39.861 1.02-39 19.258.972 20.55 8.106 42.69 11.998 62.914Z" fill="#FFE7FB"/><path d="M132.764 200.626c2.506.07 5.211.083 7.252-1.371 3.457-2.462 3.213-7.588 2.537-11.778-2.355-14.596-6.365-30.399-18.31-39.111-9.208-6.715-21.334-7.775-32.722-7.374-9.128.322-18.214 1.427-27.236 2.85-5.887.928-12.029 2.114-16.667 5.858-6.42 5.183-8.453 13.944-10.09 22.032-1.29 6.365-7.42 20.553-1.399 25.304 5.563 4.389 23.734 1.539 30.704 1.735 21.977.618 43.954 1.227 65.931 1.855Z" fill="#6987FF"/><path d="M76.591 188.839c.986 4.309 2.447 8.725 5.62 11.804 3.172 3.078 8.488 4.336 12.084 1.765 4.331-3.096 4.073-9.439 4.082-14.762a59.507 59.507 0 0 1 2.585-17.236c2.488-8.154 6.753-15.873 7.541-24.361.266-2.858-.063-6.144-2.324-7.911-1.374-1.074-3.19-1.355-4.922-1.562-9.569-1.143-26.254-4.012-29.303 8.457-1.458 5.96 1.06 14.184 1.606 20.232.712 7.897 1.258 15.823 3.031 23.574Z" fill="#DBC9FF"/><path d="m73.117 89.628-7.292.072c-.699.006-1.492.055-1.94.592-.55.66-.224 1.734.45 2.268.675.533 1.571.669 2.423.786 1.096.15 2.192.302 3.287.453 1.544.213 3.297.369 4.487-.637 1.191-1.006.743-3.556-.81-3.438m33.577 1.124-7.292.07c-.699.008-1.49.057-1.94.594-.55.66-.224 1.734.451 2.268.673.533 1.57.669 2.421.786l3.289.453c1.543.212 3.295.369 4.486-.637 1.19-1.006.743-3.556-.811-3.437" fill="#F03FA3"/><path d="M68.886 72.937c.679-.815 1.544-1.384 2.446-1.848a10.79 10.79 0 0 1 2.885-.951c1.989-.36 4.163-.21 5.97.869-1.025.288-1.957.403-2.882.602l-2.731.496c-1.827.31-3.616.678-5.688.832Zm7.412 7.64c0 1.615-.821 2.923-1.835 2.923-1.013 0-1.834-1.308-1.834-2.923s.82-2.924 1.834-2.924c1.014 0 1.835 1.309 1.835 2.924Zm32.656-7.328c-2.061-.271-3.826-.738-5.632-1.151l-2.699-.65c-.913-.25-1.837-.417-2.844-.763 1.866-.974 4.044-1.001 6.01-.531.989.239 1.944.608 2.826 1.112.874.515 1.706 1.13 2.339 1.983Zm-7.325 7.328c0 1.615.821 2.923 1.835 2.923 1.013 0 1.834-1.308 1.834-2.923s-.821-2.924-1.834-2.924c-1.014 0-1.835 1.309-1.835 2.924Z" fill="#000"/><path d="M86.659 78.92c.114.252-.7 6.746-2.76 10.218 0 0-.451 2.39 4.152 3.689m-5.981 6.625s8.086 2.681 14.354.138M75.86 115.92l-1.14 12.04-.47 4.93-2.96 1.86-16.59 10.4a46.347 46.347 0 0 0-20.67 29.42L29 197.7m70.95-82.66.42 4.46.82 8.59.45 4.8 19.55 12.26a46.347 46.347 0 0 1 20.67 29.42l5.03 23.13" stroke="#000" stroke-miterlimit="10"/><path d="M119.68 61.37c.05 1.89.06 3.72.03 5.49 0 .04.01.07.01.09 0 .01 0 .03-.01.04-.33 22.31-6.27 35.08-12.95 42.38a32.081 32.081 0 0 1-6.81 5.67c-.74.46-1.47.86-2.18 1.22-5.69 2.89-10.25 2.89-10.25 2.89-1.15 0-2.26-.08-3.32-.23-3.11-.43-5.87-1.48-8.34-3a24.26 24.26 0 0 1-4.44-3.53c-9.06-8.98-12.92-25.06-14.64-36.78l-.01-.01c-.07-.48-.14-.96-.2-1.42-1-7.26-1.18-12.53-1.34-12.81" stroke="#000" stroke-miterlimit="10"/><path d="M129.969 35.697c5.809 20.022 13.374 99.753-26.567 98.301l-3.456-18.958c8.869-5.48 19.32-18.25 19.76-48.05l.01-.01v-.03c0-.02-.01-.05-.01-.09-.05-.9-.81-6.89-11.101-21.39 0 0-13.27 15.9-32.75 15.9-18.29 0-19.51 9.21-19.29 12.81.06.88.2 1.42.2 1.42l.01.01c1.98 13.48 6.79 32.74 19.08 40.31l-1.61 16.97-26.627 16.81c-2.365-20.158-5.963-46.568-5.803-79.278 0 0-1.22-60.733 55.92-55.046 0 0 13.595 2.355 15.508 8.743 0 0 13.835 1.619 16.726 11.578Z" fill="#000"/><path d="M74.246 132.89s13.542 8.77 27.39 0" stroke="#000" stroke-miterlimit="10"/><path d="M72.483 133.998s15.475 13.623 30.919 0M80.856 197.7l-.31-1.45c-.23-1.07-.57-2.69-1-4.72-.32-1.5-.69-3.24-1.09-5.14-.32-1.48-.65-3.06-1.01-4.72-.35-1.65-.71-3.37-1.09-5.14-.32-1.54-.66-3.12-1-4.72-.36-1.71-.72-3.43-1.09-5.14-.33-1.58-.67-3.16-1-4.72-.37-1.75-.73-3.47-1.08-5.14-.35-1.62-.68-3.21-1-4.72-1.84-8.76-3.19-15.27-3.15-15.3" stroke="#000" stroke-miterlimit="10"/><path d="M58.877 142.529c-.316.198-1.635 13.841-1.635 13.841l12.535 13.367-3.516 8.116 13.034 12.493m15.031 7.354.31-1.45c.23-1.07.57-2.69 1-4.72.32-1.5.69-3.24 1.09-5.14.32-1.48.66-3.06 1.01-4.72.35-1.65.72-3.37 1.09-5.14.33-1.54.66-3.12 1-4.72.36-1.71.72-3.43 1.09-5.14.33-1.58.67-3.16.99-4.72.37-1.75.74-3.47 1.09-5.14.34-1.62.68-3.21.99-4.72 1.85-8.76 3.2-15.27 3.16-15.3" stroke="#000" stroke-miterlimit="10"/><path d="M116.305 142.529c.316.198 1.635 13.841 1.635 13.841l-12.535 13.367 3.516 8.116-13.034 12.493" stroke="#000" stroke-miterlimit="10"/><path d="M103.986 152.09c-.31 1.51-.65 3.1-.99 4.72h-30.81c-.35-1.62-.68-3.21-1-4.72h32.8Zm-2.08 9.86c-.32 1.56-.66 3.14-.99 4.72h-26.65c-.33-1.58-.67-3.16-1-4.72h28.64Zm-2.08 9.86c-.34 1.6-.67 3.18-1 4.72h-22.47c-.32-1.54-.66-3.12-1-4.72h24.47Z" fill="#000"/><path d="M83.07 39.379c0 6.416-6.335 11.618-14.149 11.618-7.814 0-14.148-5.202-14.148-11.618S61.107 27.76 68.921 27.76 83.07 32.963 83.07 39.379Zm37.106 0c0 6.416-6.335 11.618-14.149 11.618-7.813 0-14.148-5.202-14.148-11.618s6.335-11.618 14.148-11.618c7.814 0 14.149 5.202 14.149 11.618Z" stroke="#fff" stroke-width="2" stroke-miterlimit="10"/><path d="M83.07 39.379s4.096-3.655 8.81 0" stroke="#fff" stroke-width="2" stroke-miterlimit="10"/><path d="M100.37 119.5c-7.85 2.66-20.03 6.63-25.65 8.46l1.14-12.04c2.47 1.52 5.23 2.57 8.34 3 1.06.15 2.17.23 3.32.23 0 0 4.56 0 10.25-2.89.71-.36 1.44-.76 2.18-1.22l.42 4.46Z" fill="#000"/></g></svg>