<svg width="176" height="175" fill="none" xmlns="http://www.w3.org/2000/svg"><mask id="Mask group__a" style="mask-type:alpha" maskUnits="userSpaceOnUse" x="0" y="0" width="176" height="175"><circle cx="88" cy="87.5" r="87.5" fill="#D9D9D9"/></mask><g mask="url(#Mask group__a)"><path d="M62.676 101.562c2.149 3.979 5.232 7.388 7.432 11.339 3.424 6.143 4.559 13.339 4.496 20.372-.017 1.923-.101 3.936.735 5.669 1.793 3.716 6.705 4.386 10.828 4.565 6.568.285 15.054-.759 16.679-7.129.665-2.609-.16-5.336-.331-8.022-.524-8.274 5.143-15.619 11.202-21.276 6.06-5.658 13.036-10.808 16.58-18.303.918-1.942 1.566-4.28.567-6.182-2.162-4.117-9.555-2.445-11.84-6.496-.685-1.215-.711-2.673-.87-4.059-1.425-12.384-14.921-20.593-27.38-20.196-9.521.304-26.995 5.303-31.278 14.964-3.942 8.891-1.17 26.695 3.18 34.754Z" fill="#FFE7FB"/><path d="M28.851 196.225c-.123 3.898.55 8.428 3.894 10.433 1.681 1.008 3.724 1.155 5.681 1.27a867.709 867.709 0 0 0 106.704-.32c.975-.064 2.013-.152 2.785-.749 1.602-1.243 1.118-3.742.456-5.657a239.516 239.516 0 0 0-12.198-28.95c-2.759-5.513-6.239-11.364-12.068-13.37-8.11-2.792-16.401 3.027-24.776 4.88-16.664 3.686-30.798-14.179-45.938-9.364-15.267 4.854-24.086 27.43-24.54 41.827Z" fill="#C3C62B"/><path d="M68.042 146.823c-.31.5-.613 1.05-.58 1.637.041.71.555 1.292 1.058 1.795 10.395 10.401 28.339 12.105 40.504 3.845 1.523-1.034 3.006-2.262 3.783-3.931 1.531-3.288-.274-7.418-3.294-9.427-3.019-2.009-6.885-2.284-10.489-1.884-3.605.399-7.126 1.402-10.74 1.712-9.03.777-14.899-2.339-20.242 6.253Z" fill="#6987FF"/><path d="m72.27 95.622-7.292.072c-.7.006-1.491.055-1.94.592-.55.66-.224 1.735.45 2.268.675.533 1.57.669 2.424.786l3.287.453c1.544.213 3.296.369 4.486-.637 1.19-1.005.744-3.555-.81-3.437m33.577 1.122-7.293.071c-.698.007-1.49.057-1.939.593-.55.66-.224 1.734.45 2.268.674.534 1.571.67 2.422.787l3.287.452c1.545.213 3.297.37 4.488-.637 1.19-1.006.743-3.556-.812-3.437" fill="#F03FA3"/><path d="M65.397 76.963c.813-.682 1.764-1.089 2.732-1.387a10.771 10.771 0 0 1 3.008-.427c2.022-.002 4.135.528 5.725 1.91-1.061.101-1.997.051-2.944.083l-2.777.007c-1.852-.018-3.678.028-5.745-.186Zm7.57 9.922c0 1.615-.821 2.924-1.834 2.924-1.013 0-1.835-1.309-1.835-2.924 0-1.614.822-2.923 1.835-2.923s1.834 1.31 1.834 2.923Zm32.453-10.063c-2.064.24-3.889.215-5.742.254l-2.775.028c-.947-.022-1.884.041-2.944-.049 1.571-1.4 3.678-1.956 5.699-1.978a10.776 10.776 0 0 1 3.012.391c.973.286 1.93.682 2.75 1.354Zm-7.122 10.063c0 1.615.822 2.924 1.835 2.924s1.834-1.309 1.834-2.924c0-1.614-.821-2.923-1.834-2.923-1.013 0-1.835 1.31-1.835 2.923Z" fill="#000"/><path d="M82.047 85.23c.116.251-.314 6.953-1.478 10.218 0 0 0 4.669 5.374 3.689m-7.177 6.967s7.998.539 14.356-.555M27 204.009l5.03-23.13a46.351 46.351 0 0 1 20.67-29.421l19.55-12.26.58-6.179h.01l1.31-13.92.03-.3m70.71 85.21-5.03-23.13a46.351 46.351 0 0 0-20.67-29.421l-19.55-12.26-1.39-14.609-.49-5.261-.02-.17" stroke="#000" stroke-miterlimit="10"/><path d="M53.23 67.68c.44.75-.56 30.278 17.08 47.999 4.02 4.029 9.01 7.46 15.21 9.779 0 0 5.66-.859 12.24-6.13a37.186 37.186 0 0 0 3.96-3.649c7.56-7.981 15.1-22.33 15.95-48" stroke="#000" stroke-miterlimit="10"/><path d="M54.594 83.85s-7.406-7.84-10.516-3.647c-3.112 4.196 5.274 22.512 15.712 19.391" stroke="#000" stroke-miterlimit="10"/><path d="M49.1 87.394s5.029-.403 7.513 3.401" stroke="#000" stroke-miterlimit="10"/><path d="M52.108 91.172s.014-1.73 3.251-1.802m60.679-5.52s6.876-8.31 10.256-4.328c3.378 3.982-3.788 22.809-14.408 20.38" stroke="#000" stroke-miterlimit="10"/><path d="M121.94 87.03s-5.044-.073-7.273 3.886" stroke="#000" stroke-miterlimit="10"/><path d="M119.184 90.996s-.127-1.726-3.361-1.584m-43.576 49.783s13.454 9.609 27.392 0" stroke="#000" stroke-miterlimit="10"/><path d="m85.45 143.466-6.574 8.287s-7.446-1.824-11.06-9.778m18.92 1.491 6.573 8.287s7.446-1.824 11.061-9.778" stroke="#000" stroke-miterlimit="10"/><path d="M63.08 144.945s9.446 12.923 22.863 15.522c0 0 14.119-1.888 22.1-16.001" stroke="#000" stroke-miterlimit="10"/><path d="M60.165 146.864s12.361 14.902 25.778 17.5c0 0 16.988-3.986 24.969-18.099m-24.969 18.099v39.647" stroke="#000" stroke-miterlimit="10"/><path d="M104.371 57.74s-22.27 12.354-36.555 13.3c-14.284.947-12.557 13.956-12.557 13.956s-11.16-14.414-9.784-34.821c1.376-20.407 42.622-36 63.158-19.261 0 0 28.349 12.758 7.696 51.362 0 0-7.636-6.65-11.958-24.535Z" fill="#000"/><path d="M96.963 29.726c.138-1.623.46-3.23.966-4.777 1.567-4.79 6.573-7.314 11.377-7.836 1.623-.176 3.281-.173 4.87.195 4.383 1.014 7.762 4.742 9.41 8.928a19.484 19.484 0 0 1 1.259 9.032c-.172 1.722-.587 3.444-1.448 4.946-.687 1.2-1.644 2.231-2.72 3.1-3.842 3.106-9.808 4.194-14.577 3.204-3.177-.658-5.524-2.632-6.982-5.49-1.767-3.466-2.485-7.43-2.155-11.302Zm1.287 94.863c-5.95 2.069-17.84 5.97-25.41 8.43l1.31-13.92c3.25 2.55 7.01 4.729 11.37 6.359 0 0 5.66-.859 12.24-6.13l.49 5.261Z" fill="#000"/></g></svg>